<?xml version="1.0" encoding="utf-8"?>
<!-- Generator: Adobe Illustrator 23.0.4, SVG Export Plug-In . SVG Version: 6.00 Build 0)  -->
<svg version="1.1" id="Layer_1" xmlns="http://www.w3.org/2000/svg" xmlns:xlink="http://www.w3.org/1999/xlink" x="0px" y="0px"
	 viewBox="0 0 150 142" style="enable-background:new 0 0 150 142;" xml:space="preserve">
<style type="text/css">
	.st0{fill:#006837;}
</style>
<g>
	<path class="st0" d="M103.57,69.32c-4.2,0-8.41-0.01-12.61,0.01c-0.4,0-0.53-0.08-0.54-0.51c0-4.7-0.13-9.4-0.34-14.09
		c-0.14-2.99-0.32-5.98-0.52-8.97c-0.03-0.45,0.1-0.5,0.49-0.5c5.91,0.01,11.82,0.01,17.72,0.01c1.75,0,3.51,0.01,5.26-0.01
		c0.32,0,0.45,0.08,0.53,0.41c0.77,3.06,1.3,6.17,1.88,9.27c0.85,4.58,1.13,9.2,1.3,13.84c0.02,0.43-0.07,0.55-0.52,0.55
		C112.01,69.31,107.79,69.32,103.57,69.32z"/>
	<path class="st0" d="M46.59,69.32c-4.2,0-8.41-0.01-12.61,0.01c-0.42,0-0.53-0.1-0.51-0.52c0.07-1.16,0.03-2.32,0.14-3.47
		c0.51-5.21,0.95-10.43,2.12-15.54c0.32-1.41,0.67-2.81,1.03-4.21c0.07-0.26,0.2-0.32,0.45-0.32c7.73,0.01,15.46,0.01,23.19,0
		c0.31,0,0.38,0.07,0.36,0.39c-0.17,2.58-0.26,5.16-0.48,7.73c-0.43,5.18-0.44,10.37-0.49,15.55c0,0.42-0.23,0.39-0.5,0.39
		C55.06,69.32,50.82,69.32,46.59,69.32z"/>
	<path class="st0" d="M103.6,74.03c4.19,0,8.37,0.01,12.56-0.01c0.53,0,0.61,0.15,0.59,0.63c-0.11,4.39-0.4,8.77-1.15,13.09
		c-0.57,3.29-1.14,6.59-2,9.83c-0.1,0.39-0.32,0.37-0.61,0.37c-4.53,0-9.07,0-13.6,0c-3.09,0-6.19-0.01-9.28,0.01
		c-0.4,0-0.57-0.04-0.53-0.53c0.53-7.63,0.83-15.27,0.85-22.91c0-0.41,0.13-0.49,0.51-0.49C95.16,74.03,99.38,74.03,103.6,74.03z"/>
	<path class="st0" d="M46.66,74.03c4.2,0,8.41,0.01,12.61-0.01c0.42,0,0.52,0.11,0.52,0.53c-0.01,4.65,0.06,9.31,0.36,13.95
		c0.19,3,0.32,6,0.59,8.99c0.03,0.33,0,0.46-0.38,0.46c-7.71-0.01-15.43-0.01-23.14,0c-0.3,0-0.43-0.08-0.5-0.39
		c-0.19-0.92-0.4-1.84-0.65-2.75c-0.9-3.22-1.32-6.52-1.75-9.83c-0.24-1.84-0.34-3.69-0.54-5.53c-0.18-1.64-0.29-3.28-0.32-4.93
		c-0.01-0.39,0.09-0.5,0.48-0.5C38.19,74.04,42.42,74.03,46.66,74.03z"/>
	<path class="st0" d="M75.16,69.32c-3.29,0-6.59-0.01-9.88,0.01c-0.42,0-0.51-0.12-0.51-0.52C64.81,62.4,65.04,56,65.4,49.6
		c0.07-1.32,0.19-2.64,0.26-3.96c0.02-0.32,0.13-0.37,0.42-0.37c6.06,0.01,12.12,0.01,18.18,0c0.3,0,0.39,0.07,0.41,0.38
		c0.4,5.46,0.65,10.94,0.78,16.41c0.05,2.27,0.06,4.53,0.12,6.8c0.01,0.37-0.09,0.47-0.46,0.46C81.78,69.31,78.47,69.32,75.16,69.32
		z"/>
	<path class="st0" d="M75.19,74.04c3.29,0,6.59,0.01,9.88-0.01c0.39,0,0.49,0.11,0.49,0.49c-0.04,6.47-0.27,12.94-0.63,19.4
		c-0.07,1.19-0.19,2.38-0.24,3.56c-0.02,0.42-0.18,0.46-0.54,0.46c-4.91-0.01-9.83-0.01-14.74-0.01c-1.11,0-2.22-0.01-3.33,0.01
		c-0.28,0-0.4-0.04-0.42-0.37c-0.4-5.51-0.65-11.03-0.77-16.56c-0.05-2.17-0.06-4.33-0.11-6.5c-0.01-0.39,0.1-0.49,0.49-0.49
		C68.57,74.04,71.88,74.04,75.19,74.04z"/>
	<path class="st0" d="M129.34,69.33c-2.38,0-4.77-0.01-7.15,0.01c-0.45,0-0.55-0.12-0.55-0.55c-0.06-2.96-0.25-5.92-0.55-8.87
		c-0.25-2.45-0.5-4.91-1.02-7.32c-0.5-2.3-0.88-4.63-1.49-6.9c-0.09-0.35-0.07-0.45,0.33-0.45c4.27,0.01,8.54,0.01,12.81,0
		c0.31,0,0.42,0.12,0.51,0.39c0.28,0.83,0.55,1.66,0.88,2.47c1.07,2.64,1.61,5.42,2.29,8.17c1.02,4.11,1.38,8.29,1.6,12.5
		c0.02,0.42-0.05,0.56-0.52,0.55C134.11,69.31,131.73,69.33,129.34,69.33z"/>
	<path class="st0" d="M20.88,69.32c-2.4,0-4.8-0.01-7.2,0.01c-0.37,0-0.48-0.08-0.46-0.46c0.08-1.88,0.14-3.78,0.43-5.64
		c0.57-3.58,1.02-7.19,2.08-10.67c0.71-2.33,1.39-4.67,2.27-6.95c0.12-0.3,0.29-0.34,0.56-0.34c4.29,0,8.57,0.01,12.86,0
		c0.36,0,0.42,0.09,0.32,0.42c-0.84,2.78-1.32,5.64-1.77,8.51c-0.26,1.65-0.4,3.32-0.67,4.96c-0.52,3.22-0.6,6.47-0.71,9.72
		c-0.01,0.39-0.17,0.45-0.51,0.45C25.68,69.31,23.28,69.32,20.88,69.32z"/>
	<path class="st0" d="M129.34,74.02c2.38,0,4.77,0.01,7.15-0.01c0.46-0.01,0.54,0.13,0.52,0.55c-0.15,4.01-0.54,7.99-1.42,11.9
		c-0.6,2.66-1.18,5.34-2.12,7.91c-0.4,1.09-0.77,2.19-1.2,3.28c-0.09,0.23-0.21,0.29-0.44,0.29c-4.3,0-8.61-0.01-12.91,0
		c-0.35,0-0.38-0.12-0.31-0.41c0.51-2.09,0.85-4.21,1.32-6.3c0.66-2.92,0.94-5.89,1.25-8.86c0.27-2.6,0.4-5.21,0.45-7.83
		c0.01-0.42,0.11-0.55,0.55-0.55C124.57,74.04,126.96,74.02,129.34,74.02z"/>
	<path class="st0" d="M20.9,74.04c2.37,0,4.73,0.01,7.1-0.01c0.41,0,0.58,0.08,0.59,0.53c0.04,2.88,0.19,5.76,0.53,8.62
		c0.29,2.4,0.67,4.8,1.04,7.19c0.28,1.81,0.63,3.61,1.04,5.4c0.13,0.57,0.31,1.13,0.49,1.69c0.13,0.39,0.03,0.49-0.39,0.49
		c-3.51-0.02-7.02-0.01-10.53-0.01c-0.76,0-1.52-0.02-2.28,0.01c-0.32,0.01-0.47-0.1-0.57-0.4c-0.67-1.87-1.22-3.77-1.83-5.65
		c-1.18-3.64-1.72-7.41-2.31-11.17c-0.32-2.06-0.41-4.13-0.56-6.2c-0.03-0.4,0.1-0.49,0.49-0.49C16.1,74.05,18.5,74.04,20.9,74.04z"
		/>
	<path class="st0" d="M49.74,102.65c3.64,0,7.28,0.01,10.92-0.01c0.41,0,0.52,0.11,0.55,0.52c0.28,3.39,0.58,6.79,1.13,10.15
		c0.33,2.03,0.58,4.07,0.98,6.09c0.06,0.32,0,0.4-0.32,0.4c-5.54,0.01-11.09,0.03-16.63,0.06c-0.23,0-0.35-0.07-0.47-0.26
		c-1.09-1.84-2.14-3.7-3.1-5.62c-0.85-1.7-1.51-3.47-2.31-5.18c-0.85-1.85-1.42-3.79-2.09-5.69c-0.13-0.36-0.09-0.47,0.33-0.46
		C42.39,102.66,46.06,102.65,49.74,102.65z"/>
	<path class="st0" d="M100.53,40.59c-3.62,0-7.25-0.01-10.87,0.01c-0.4,0-0.5-0.11-0.56-0.51c-0.38-2.36-0.51-4.75-0.81-7.13
		c-0.39-3.08-0.79-6.17-1.32-9.23c-0.05-0.3,0.06-0.32,0.3-0.32c5.46,0,10.92,0,16.39,0c0.21,0,0.32,0.07,0.44,0.24
		c0.89,1.23,1.54,2.6,2.32,3.9c0.9,1.5,1.53,3.13,2.33,4.67c0.86,1.66,1.43,3.43,2.12,5.15c0.36,0.91,0.75,1.81,1.03,2.76
		c0.11,0.37,0.08,0.47-0.34,0.47C107.88,40.58,104.21,40.59,100.53,40.59z"/>
	<path class="st0" d="M49.72,40.59c-3.64,0-7.28-0.01-10.93,0.01c-0.41,0-0.5-0.07-0.36-0.48c0.54-1.61,1.02-3.25,1.72-4.8
		c0.74-1.65,1.34-3.37,2.21-4.96c0.72-1.31,1.3-2.7,2.11-3.96c0.57-0.89,1.09-1.8,1.63-2.7c0.16-0.27,0.37-0.27,0.63-0.27
		c3.84,0,7.68,0,11.52,0c1.57,0,3.15,0.01,4.72-0.01c0.36,0,0.43,0.07,0.37,0.44c-0.3,1.86-0.51,3.74-0.86,5.59
		c-0.66,3.58-0.91,7.2-1.27,10.81c-0.04,0.4-0.27,0.33-0.51,0.33C57.04,40.59,53.38,40.59,49.72,40.59z"/>
	<path class="st0" d="M100.64,102.65c3.64,0,7.28,0.01,10.92-0.01c0.46,0,0.51,0.1,0.36,0.51c-0.89,2.5-1.79,4.99-2.9,7.39
		c-0.67,1.46-1.29,2.96-2.11,4.34c-0.78,1.3-1.42,2.67-2.23,3.95c-0.17,0.27-0.42,0.5-0.56,0.79c-0.12,0.24-0.34,0.16-0.53,0.16
		c-3.62,0.01-7.25,0.01-10.87,0.01c-1.75,0-3.51-0.01-5.26,0.01c-0.39,0-0.51-0.07-0.44-0.49c0.46-2.66,0.83-5.32,1.15-8
		c0.26-2.28,0.51-4.57,0.74-6.85c0.05-0.52,0.28-1.01,0.24-1.55c-0.02-0.3,0.23-0.26,0.42-0.26c1.61,0,3.21,0,4.82,0
		C96.47,102.65,98.55,102.65,100.64,102.65z"/>
	<path class="st0" d="M75.11,40.58c-2.86,0-5.73-0.01-8.59,0.01c-0.37,0-0.47-0.07-0.42-0.46c0.23-2.02,0.39-4.05,0.66-6.07
		c0.41-3.05,0.89-6.1,1.35-9.15c0.06-0.39,0.14-0.78,0.19-1.17c0.03-0.23,0.11-0.33,0.37-0.33c4.29,0.01,8.57,0.01,12.86,0
		c0.3,0,0.36,0.14,0.4,0.37c0.1,0.65,0.18,1.31,0.32,1.96c0.81,3.73,1.1,7.54,1.56,11.32c0.13,1.03,0.19,2.08,0.32,3.11
		c0.05,0.39-0.1,0.42-0.43,0.42C80.84,40.58,77.98,40.58,75.11,40.58z"/>
	<path class="st0" d="M75.13,102.66c2.85,0,5.69,0.01,8.54-0.01c0.4,0,0.5,0.1,0.46,0.49c-0.45,4.61-0.94,9.21-1.7,13.78
		c-0.14,0.87-0.33,1.74-0.49,2.61c-0.03,0.17-0.1,0.27-0.29,0.26c-0.08-0.01-0.17,0-0.25,0c-4.19,0-8.38-0.01-12.56,0.01
		c-0.39,0-0.53-0.11-0.59-0.51c-0.49-3.02-0.84-6.06-1.32-9.08c-0.37-2.37-0.53-4.75-0.84-7.12c-0.05-0.35,0.04-0.45,0.4-0.45
		C69.37,102.66,72.25,102.66,75.13,102.66z"/>
	<path class="st0" d="M109.65,23.41c2.83,0,5.56,0,8.29,0c0.19,0,0.3,0.09,0.42,0.22c1.18,1.36,2.41,2.67,3.53,4.08
		c0.8,1.01,1.51,2.07,2.32,3.08c0.81,1.01,1.4,2.15,2.14,3.2c0.9,1.28,1.56,2.71,2.36,4.04c0.48,0.81,0.86,1.65,1.28,2.47
		c-0.15,0.16-0.31,0.09-0.44,0.09c-3.99,0-7.98,0-11.97,0.01c-0.38,0-0.5-0.13-0.6-0.47c-0.39-1.28-0.77-2.56-1.25-3.81
		c-0.7-1.84-1.39-3.7-2.24-5.47c-0.69-1.45-1.29-2.96-2.11-4.34C110.79,25.51,110.29,24.48,109.65,23.41z"/>
	<path class="st0" d="M40.68,23.42c-1.19,1.58-1.81,3.32-2.72,4.92c-0.63,1.11-1.04,2.35-1.59,3.52c-1.03,2.18-1.79,4.46-2.57,6.73
		c-0.19,0.55-0.44,1.09-0.58,1.66c-0.08,0.34-0.28,0.34-0.54,0.34c-2.18-0.01-4.37,0-6.55,0c-1.79,0-3.57,0-5.36,0
		c-0.15,0-0.36,0.09-0.46-0.07c-0.1-0.17,0.14-0.22,0.21-0.35c0.58-1.17,1.13-2.35,1.77-3.49c0.75-1.33,1.52-2.66,2.4-3.91
		c0.67-0.96,1.28-1.95,2-2.88c0.77-1,1.51-2.04,2.36-2.99c0.71-0.8,1.37-1.65,2.1-2.43c0.3-0.32,0.63-0.62,0.94-0.94
		c0.09-0.09,0.2-0.11,0.31-0.11C35.11,23.42,37.83,23.42,40.68,23.42z"/>
	<path class="st0" d="M109.72,119.8c0.64-1.15,1.27-2.18,1.82-3.26c0.57-1.12,1.02-2.29,1.61-3.4c0.91-1.72,1.47-3.59,2.24-5.36
		c0.67-1.54,1.13-3.15,1.63-4.75c0.1-0.31,0.24-0.39,0.56-0.39c4,0.01,8.01,0.01,12.01,0c0.38,0,0.5,0.02,0.3,0.44
		c-0.92,1.92-1.96,3.77-3.07,5.57c-0.69,1.13-1.36,2.3-2.17,3.35c-0.79,1.01-1.45,2.13-2.29,3.09c-0.66,0.76-1.24,1.58-1.91,2.33
		c-0.66,0.73-1.33,1.46-1.99,2.19c-0.11,0.12-0.22,0.19-0.38,0.19C115.33,119.8,112.59,119.8,109.72,119.8z"/>
	<path class="st0" d="M40.5,119.79c-1.15-0.08-2.27-0.15-3.39-0.23c-1.8-0.13-3.6-0.26-5.4-0.38c-0.25-0.02-0.42-0.1-0.59-0.3
		c-1.31-1.57-2.66-3.1-3.9-4.74c-0.76-1-1.41-2.06-2.17-3.06c-0.87-1.15-1.5-2.44-2.28-3.64c-0.87-1.31-1.51-2.73-2.2-4.14
		c-0.11-0.22-0.38-0.33-0.35-0.66c0.16,0,0.32,0,0.48,0c3.96,0,7.91,0.01,11.87-0.01c0.38,0,0.52,0.11,0.64,0.47
		c0.8,2.32,1.56,4.66,2.5,6.92c0.68,1.62,1.29,3.28,2.15,4.82c0.79,1.43,1.45,2.92,2.26,4.33C40.24,119.38,40.46,119.47,40.5,119.79
		z"/>
	<path class="st0" d="M83.45,133.51c0.47-1.15,0.76-2.35,1.17-3.51c0.45-1.27,0.69-2.62,1.01-3.93c0.1-0.42,0.2-0.84,0.28-1.26
		c0.04-0.21,0.1-0.31,0.34-0.31c4.78,0.01,9.56,0,14.4,0c-0.18,0.34-0.39,0.59-0.64,0.83c-0.3,0.28-0.54,0.62-0.8,0.94
		c-1,1.23-2.14,2.34-3.29,3.43c-1.38,1.3-2.87,2.48-4.41,3.59c-0.22,0.16-0.45,0.26-0.73,0.26c-2.38,0-4.77,0-7.15,0
		C83.59,133.55,83.54,133.53,83.45,133.51z"/>
	<path class="st0" d="M49.61,124.5c0.24,0,0.37,0,0.5,0c4.57,0,9.14,0,13.7-0.01c0.31,0,0.46,0.06,0.54,0.39
		c0.72,2.79,1.38,5.6,2.31,8.33c0.03,0.09,0.05,0.18,0.1,0.33c-0.22,0-0.39,0-0.57,0c-2.17,0-4.34-0.01-6.5,0.01
		c-0.37,0-0.66-0.11-0.95-0.32c-1.78-1.24-3.42-2.63-4.98-4.14C52.31,127.69,50.92,126.22,49.61,124.5z"/>
	<path class="st0" d="M100.57,18.73c-0.2,0-0.35,0-0.49,0c-4.55,0-9.1-0.01-13.64,0.01c-0.39,0-0.53-0.11-0.6-0.49
		c-0.3-1.57-0.63-3.15-1.14-4.66c-0.39-1.18-0.72-2.38-1.17-3.55c-0.12-0.31-0.03-0.36,0.26-0.36c2.28,0.01,4.56,0.01,6.85,0
		c0.35,0,0.63,0.2,0.88,0.39c1.33,1,2.66,2,3.89,3.13c1.58,1.45,3.09,2.96,4.43,4.63C100.05,18.12,100.37,18.31,100.57,18.73z"/>
	<path class="st0" d="M49.69,18.73c0.63-0.74,1.07-1.47,1.73-2.02c0.06-0.05,0.12-0.12,0.17-0.18c1.14-1.41,2.47-2.62,3.81-3.81
		c1.18-1.05,2.43-2.02,3.76-2.9c0.16-0.11,0.33-0.13,0.51-0.13c2.23,0,4.47,0.01,6.7-0.01c0.39,0,0.43,0.1,0.31,0.44
		c-0.74,2.14-1.31,4.33-1.85,6.53c-0.15,0.62-0.39,1.21-0.5,1.84c-0.05,0.33-0.31,0.23-0.5,0.23c-3.01,0-6.02,0-9.04,0
		C53.14,18.73,51.49,18.73,49.69,18.73z"/>
	<path class="st0" d="M75.2,124.51c1.79,0,3.57,0.01,5.36-0.01c0.37,0,0.45,0.08,0.35,0.45c-0.21,0.85-0.31,1.73-0.57,2.56
		c-0.6,1.88-0.98,3.82-1.62,5.69c-0.09,0.27-0.21,0.36-0.49,0.36c-2.05-0.01-4.1-0.01-6.15,0c-0.28,0-0.38-0.09-0.49-0.35
		c-1.07-2.69-1.56-5.54-2.21-8.34c-0.09-0.4,0.12-0.35,0.36-0.35C71.57,124.51,73.39,124.51,75.2,124.51z"/>
	<path class="st0" d="M80.97,18.71c-3.88,0-7.73,0-11.61,0c0.53-2.57,1.09-5.12,1.88-7.61c0.12-0.4,0.33-0.77,0.45-1.18
		c0.06-0.21,0.19-0.23,0.37-0.23c2.07,0,4.14,0.01,6.21-0.01c0.29,0,0.36,0.14,0.43,0.36c0.49,1.53,0.85,3.09,1.31,4.62
		C80.38,15.99,80.67,17.34,80.97,18.71z"/>
	<path class="st0" d="M138.52,97.96c-0.17,0-0.33,0-0.5,0c-0.76-0.01-0.81,0.08-0.46-0.66c0.52-1.11,0.81-2.29,1.16-3.45
		c0.35-1.19,0.62-2.4,0.96-3.59c1.45-5.15,1.98-10.43,2.2-15.75c0.01-0.37,0.09-0.52,0.5-0.5c0.83,0.04,1.65,0.02,2.48,0.01
		c0.28,0,0.41,0.04,0.4,0.37c-0.1,2.75-0.3,5.5-0.85,8.19c-0.58,2.85-1.09,5.74-2.06,8.49c-0.74,2.09-1.42,4.21-2.31,6.24
		c-0.18,0.41-0.42,0.77-0.97,0.65C138.89,97.93,138.7,97.96,138.52,97.96z"/>
	<path class="st0" d="M137.32,45.26c0.69,0,1.35-0.02,2.01,0.01c0.51,0.02,0.58,0.51,0.73,0.85c0.73,1.68,1.27,3.43,1.91,5.15
		c1.09,2.93,1.64,5.99,2.3,9.03c0.62,2.84,0.81,5.7,0.99,8.58c0.02,0.37-0.07,0.48-0.45,0.47c-0.81-0.03-1.62-0.03-2.43,0
		c-0.35,0.01-0.49-0.07-0.5-0.45c-0.07-3.06-0.37-6.1-0.82-9.13c-0.29-1.93-0.57-3.86-1.1-5.74c-0.68-2.42-1.24-4.88-2.09-7.25
		C137.71,46.28,137.38,45.85,137.32,45.26z"/>
	<path class="st0" d="M12.91,45.27c-0.43,1.37-0.79,2.69-1.27,3.97c-0.74,1.97-1.13,4.02-1.59,6.06c-0.24,1.06-0.37,2.15-0.61,3.21
		c-0.77,3.42-0.96,6.89-1.1,10.37c-0.01,0.35-0.13,0.44-0.47,0.43c-0.78-0.02-1.56-0.03-2.33,0c-0.37,0.01-0.48-0.09-0.46-0.47
		c0.11-2.31,0.32-4.62,0.65-6.91c0.29-2,0.6-3.99,1.16-5.93c0.72-2.48,1.34-5,2.33-7.39c0.42-1,0.81-2.01,1.25-3
		c0.11-0.24,0.22-0.36,0.51-0.35C11.6,45.29,12.23,45.27,12.91,45.27z"/>
	<path class="st0" d="M6.68,74.04c0.41,0,0.83,0.02,1.24-0.01c0.3-0.02,0.4,0.09,0.41,0.39c0.04,2.02,0.19,4.03,0.42,6.04
		c0.15,1.26,0.24,2.54,0.51,3.78c0.65,3.03,1.12,6.1,2.08,9.05c0.46,1.4,0.88,2.82,1.4,4.21c0.12,0.32,0.1,0.45-0.28,0.43
		c-0.51-0.03-1.03-0.02-1.54,0c-0.28,0.01-0.41-0.1-0.51-0.35c-0.27-0.71-0.53-1.43-0.85-2.11c-1.07-2.32-1.66-4.79-2.38-7.22
		c-1.32-4.45-1.82-9.01-2.1-13.61c-0.03-0.53,0.13-0.67,0.62-0.61C6.02,74.07,6.35,74.04,6.68,74.04z"/>
	<path class="st0" d="M99.19,133.32c1.22-1.4,2.47-2.77,3.66-4.2c1.22-1.47,2.57-2.84,3.65-4.42c0.11-0.16,0.25-0.2,0.42-0.2
		c2.03,0,4.07,0,6.1,0.01c0.02,0,0.05,0.03,0.12,0.09c-0.66,0.54-1.29,1.08-1.95,1.6c-0.12,0.1-0.27,0.17-0.4,0.28
		c-1.9,1.54-3.95,2.87-6.05,4.1c-1.77,1.04-3.56,2.06-5.48,2.81C99.24,133.36,99.21,133.34,99.19,133.32z"/>
	<path class="st0" d="M51.2,133.51c-0.83-0.4-1.67-0.76-2.48-1.19c-2.04-1.08-4.05-2.22-5.97-3.51c-1.52-1.03-3.01-2.08-4.43-3.24
		c-0.4-0.33-0.84-0.61-1.29-1.06c0.68,0,1.25,0,1.82,0c1.42,0,2.85,0.01,4.27-0.01c0.32,0,0.5,0.1,0.69,0.35
		c0.96,1.28,1.89,2.58,2.93,3.8c1.39,1.63,2.89,3.16,4.43,4.65c0.03,0.03,0.06,0.08,0.08,0.12
		C51.24,133.45,51.22,133.48,51.2,133.51z"/>
	<path class="st0" d="M99.03,9.9c5.09,2.22,9.72,5.16,13.97,8.72c-0.09,0.17-0.22,0.11-0.32,0.11c-1.9,0-3.81,0-5.71,0.01
		c-0.31,0-0.48-0.11-0.64-0.35c-0.38-0.56-0.76-1.13-1.18-1.66c-1.52-1.95-3.15-3.8-4.9-5.55C99.85,10.76,99.38,10.41,99.03,9.9z"/>
	<path class="st0" d="M51.27,9.9c-0.71,0.75-1.41,1.52-2.19,2.2c-0.06,0.05-0.12,0.12-0.17,0.18c-1.34,1.54-2.74,3.03-3.95,4.69
		c-0.38,0.53-0.81,1.03-1.18,1.57c-0.08,0.12-0.16,0.19-0.32,0.19c-2.06,0-4.12,0-6.32,0c0.93-0.74,1.75-1.43,2.59-2.06
		c2.22-1.66,4.53-3.19,6.95-4.54c1.48-0.83,2.98-1.62,4.55-2.27C51.24,9.87,51.26,9.89,51.27,9.9z"/>
	<path class="st0" d="M128.23,115.26c1.1-1.37,1.93-2.92,2.9-4.37c0.63-0.94,1.1-1.99,1.68-2.97c0.95-1.6,1.73-3.28,2.47-4.99
		c0.08-0.19,0.16-0.3,0.39-0.29c0.53,0.01,1.06,0,1.72,0c-2.56,4.65-5.52,8.9-9.07,12.72C128.28,115.33,128.25,115.3,128.23,115.26z
		"/>
	<path class="st0" d="M128.3,28.02c0.26,0.25,0.56,0.48,0.79,0.76c1.35,1.66,2.72,3.31,3.97,5.06c0.8,1.13,1.5,2.32,2.3,3.45
		c0.73,1.02,1.26,2.14,1.95,3.31c-0.67,0-1.23,0-1.8,0c-0.23,0-0.24-0.2-0.3-0.34c-0.42-0.9-0.79-1.82-1.25-2.69
		c-0.88-1.67-1.75-3.36-2.75-4.96c-0.69-1.12-1.36-2.25-2.12-3.32C128.79,28.88,128.42,28.54,128.3,28.02z"/>
	<path class="st0" d="M22.03,115.39c-0.11,0.01-0.15-0.07-0.2-0.13c-0.97-1.21-2.04-2.33-2.98-3.57c-0.96-1.26-1.85-2.57-2.77-3.85
		c-0.79-1.1-1.41-2.3-2.15-3.43c-0.36-0.55-0.69-1.1-1.02-1.75c0.62,0,1.18,0,1.73,0c0.23,0,0.26,0.18,0.32,0.32
		c0.84,1.92,1.84,3.76,2.83,5.6c0.74,1.38,1.54,2.73,2.42,4.02c0.55,0.8,1.06,1.63,1.63,2.41
		C21.92,115.12,22.05,115.22,22.03,115.39z"/>
	<path class="st0" d="M22.08,27.9c-0.63,0.9-1.15,1.85-1.79,2.73c-0.67,0.92-1.15,1.97-1.77,2.92c-0.95,1.45-1.64,3.04-2.46,4.56
		c-0.39,0.72-0.73,1.47-1.08,2.21c-0.06,0.13-0.11,0.26-0.31,0.26c-0.54-0.01-1.08,0-1.71,0c0.23-0.43,0.37-0.83,0.62-1.14
		c0.48-0.61,0.81-1.31,1.21-1.97c0.98-1.63,2.07-3.18,3.2-4.7c0.69-0.92,1.35-1.88,2.13-2.72C20.8,29.34,21.37,28.56,22.08,27.9z"/>
	<path class="st0" d="M22.38,115.77c-0.17-0.01-0.23-0.12-0.24-0.28C22.21,115.58,22.29,115.68,22.38,115.77L22.38,115.77z"/>
	<path class="st0" d="M22.37,115.77c0.04,0.08,0.07,0.16,0.16,0.19C22.43,115.94,22.37,115.87,22.37,115.77
		C22.38,115.77,22.37,115.77,22.37,115.77z"/>
	<path class="st0" d="M128.1,115.43c0.04-0.06,0.09-0.11,0.13-0.17c0.03,0.03,0.05,0.07,0.08,0.1c-0.05,0.05-0.09,0.09-0.14,0.14
		C128.14,115.48,128.12,115.45,128.1,115.43z"/>
	<path class="st0" d="M128.17,115.5c-0.04,0.09-0.11,0.11-0.19,0.05c0.04-0.04,0.08-0.08,0.12-0.13
		C128.12,115.45,128.14,115.48,128.17,115.5z"/>
	<path class="st0" d="M51.23,9.85c0.06-0.06,0.16-0.1,0.19-0.03c0.04,0.12-0.09,0.05-0.15,0.07C51.26,9.89,51.24,9.87,51.23,9.85z"
		/>
	<path class="st0" d="M128.17,27.86c0.04,0.03,0.13,0.06,0.06,0.13c-0.07,0.06-0.1-0.02-0.13-0.06
		C128.12,27.9,128.15,27.88,128.17,27.86z"/>
	<path class="st0" d="M128.1,27.92c-0.01-0.04-0.04-0.1-0.03-0.11c0.05-0.04,0.08,0,0.1,0.05C128.15,27.88,128.12,27.9,128.1,27.92z
		"/>
	<path class="st0" d="M22.1,27.81c0.01,0.01,0.03,0.02,0.02,0.02c-0.01,0.02-0.02,0.04-0.03,0.07c-0.01-0.01-0.03-0.01-0.04-0.02
		C22.08,27.85,22.09,27.83,22.1,27.81z"/>
	<path class="st0" d="M98.95,9.84c-0.02,0.01-0.04,0.02-0.06,0.03c-0.01,0-0.02-0.02-0.03-0.03c0.02-0.01,0.04-0.02,0.06-0.03
		C98.92,9.81,98.94,9.83,98.95,9.84z"/>
	<path class="st0" d="M99.26,133.38c-0.04,0.02-0.07,0.03-0.11,0.05c0.01-0.04,0.02-0.07,0.03-0.11
		C99.21,133.34,99.24,133.36,99.26,133.38z"/>
	<polygon class="st0" points="51.4,133.53 51.39,133.5 51.42,133.51 	"/>
</g>
</svg>
