<?xml version="1.0" encoding="utf-8"?>
<!-- Generator: Adobe Illustrator 23.0.4, SVG Export Plug-In . SVG Version: 6.00 Build 0)  -->
<svg version="1.1" id="Layer_1" xmlns="http://www.w3.org/2000/svg" xmlns:xlink="http://www.w3.org/1999/xlink" x="0px" y="0px"
	 viewBox="0 0 733 167" style="enable-background:new 0 0 733 167;" xml:space="preserve">
<style type="text/css">
	.st0{fill:#1F1A1A;}
	.st1{fill:#D3CECF;}
	.st2{fill:#8CC63F;}
	.st3{fill:#FFFF00;}
	.st4{fill:#00FFFF;}
	.st5{fill:#F7931E;}
	.st6{fill:#FF0000;}
	.st7{fill:#006837;}
	.st8{font-family:'Palatino-Roman';}
	.st9{font-size:18px;}
</style>
<path class="st0" d="M591.67,123.75c2.62-3.22,5.24-6.44,7.83-9.62c-0.4-0.81-1.04-0.49-1.52-0.49
	c-20.64-0.04-41.27-0.06-61.91-0.07c-1.93,0-1.95,0.01-2.63,1.88c-1.25,3.41-3.59,5.84-6.8,7.4c-5.33,2.6-10.8,2.69-16.23,0.37
	c-3.7-1.58-6.39-4.28-7.65-8.13c-0.45-1.37-1.1-1.66-2.39-1.65c-3.92,0.04-7.84-0.06-11.75-0.07c-19.52-0.03-39.03-0.05-58.55-0.07
	c-0.56,0-1.12,0.02-1.68,0c-0.64-0.03-1.02,0.19-1.22,0.86c-1.41,4.66-4.62,7.58-9.13,9.09c-4.83,1.62-9.62,1.35-14.19-0.98
	c-3.03-1.55-5.21-3.92-6.44-7.13c-0.72-1.88-0.73-1.88-2.84-1.88c-7.76-0.01-15.52-0.03-23.28-0.03
	c-20.56-0.01-41.11-0.01-61.67-0.07c-1.63-0.01-2.51,0.37-3.17,2c-1.11,2.76-3.28,4.72-5.94,6.02c-5.26,2.56-10.62,2.69-15.97,0.26
	c-3.02-1.37-5.37-3.54-6.61-6.63c-0.55-1.37-1.28-1.69-2.65-1.69c-7.04,0.04-14.08-0.02-21.12-0.03
	c-21.68-0.04-43.35-0.05-65.03-0.14c-1.73-0.01-2.71,0.34-3.42,2.08c-1.02,2.51-3.04,4.29-5.44,5.54
	c-5.39,2.78-10.87,2.89-16.38,0.35c-2.86-1.32-5.1-3.4-6.3-6.31c-0.62-1.51-1.47-1.75-2.89-1.74c-6.56,0.04-13.12-0.03-19.68-0.03
	c-24.96-0.02-49.91-0.02-74.87-0.08c-1.57,0-2.62,0.18-3.29,1.87c-0.71,1.81-2.17,3.19-3.84,4.18c-5.77,3.42-11.71,3.69-17.48,0.18
	c-7.55-4.58-7.54-14.85,0.01-19.42c5.5-3.33,11.25-3.25,16.88-0.19c2.38,1.29,4.19,3.29,5.04,5.88c0.48,1.46,1.25,1.85,2.59,1.67
	c0.08-0.01,0.16,0,0.24,0c31.28,0.02,62.55,0.05,93.83,0.07c0.56,0,1.12-0.02,1.68,0c0.66,0.02,0.92-0.3,1.16-0.92
	c2.47-6.67,7.77-9.18,14.39-9.56c2.66-0.15,5.26,0.41,7.7,1.51c3.41,1.54,6.02,3.94,7.29,7.54c0.41,1.17,1.01,1.71,2.24,1.49
	c0.23-0.04,0.48-0.01,0.72-0.01c21.2,0.02,42.39,0.04,63.59,0.08c7.36,0.01,14.72,0.03,22.07,0.13c1.46,0.02,2.22-0.34,2.81-1.82
	c2.01-4.99,6.11-7.44,11.17-8.38c3.69-0.68,7.34-0.31,10.79,1.28c3.24,1.5,5.79,3.76,7.02,7.17c0.54,1.48,1.32,1.82,2.8,1.82
	c11.36-0.04,22.72,0.01,34.07,0.02c17.12,0.02,34.24,0.02,51.35,0.07c1.49,0,2.38-0.23,3.07-1.82c1.28-2.97,3.74-4.96,6.69-6.23
	c4.61-1.98,9.31-2.09,14.01-0.28c3.5,1.35,6.21,3.63,7.72,7.11c0.43,0.98,0.94,1.37,1.95,1.23c0.31-0.04,0.64-0.01,0.96-0.01
	c20.4,0.01,40.79,0.02,61.19,0.04c3.52,0,7.04,0.02,10.56,0.06c0.86,0.01,1.46-0.12,1.86-1.06c2.53-5.85,7.41-8.35,13.41-9.01
	c3.82-0.42,7.48,0.35,10.86,2.26c2.5,1.41,4.55,3.32,5.66,5.99c0.62,1.49,1.43,1.94,3.03,1.93c9.04-0.09,18.08-0.06,27.12-0.04
	c11.2,0.02,22.39,0.07,33.59,0.1c0.87,0,1.75,0,2.81,0c-0.48-1.68-1.74-2.6-2.58-3.77c-0.93-1.3-1.98-2.51-2.97-3.76
	c-0.92-1.16-1.84-2.32-2.51-3.77c9.32,4.67,18.63,9.35,28.33,14.21c-9.17,4.64-18.07,9.14-26.97,13.64
	C592.39,124.12,591.65,124.78,591.67,123.75z M517.65,123.28c4.38-0.02,8.04-1.16,11.1-3.89c5.32-4.74,5.24-12.09-0.15-16.74
	c-5.81-5-15.47-4.89-21.17,0.24c-4.85,4.37-5.16,11-0.66,15.75C509.8,121.83,513.65,123.12,517.65,123.28z M411.98,122.71
	c3.45-0.08,6.56-0.94,9.3-2.93c5.36-3.88,6.28-10.57,2.15-15.48c-5.58-6.62-17.52-6.46-22.9,0.31c-3.23,4.07-3.08,9.5,0.43,13.35
	C403.94,121.24,407.77,122.55,411.98,122.71z M292.56,121.51c2.25,0.05,4.64-0.48,6.9-1.6c7.57-3.77,8.99-12.52,2.92-17.93
	c-5.51-4.92-14.98-4.83-20.41,0.2c-4.87,4.5-4.79,11.38,0.2,15.75C285.06,120.45,288.48,121.54,292.56,121.51z M171.83,121.13
	c3.45-0.07,6.62-0.97,9.38-3.12c5.83-4.54,5.83-12.29,0-16.82c-5.52-4.28-13.74-4.19-19.13,0.22c-5.41,4.42-5.51,11.67-0.21,16.21
	C164.73,120.07,168.11,121.07,171.83,121.13z M43.26,119.85c3.62,0.02,6.38-0.77,8.7-2.27c6.04-3.92,6.48-11.51,0.93-15.96
	c-5.11-4.1-13.25-3.87-18.12,0.52c-4.44,4-4.44,10.32,0.03,14.29C37.43,118.76,40.55,119.79,43.26,119.85z"/>
<path class="st0" d="M652.97,95.39c3.79,0.09,7.4,1.03,10.48,3.39c8.13,6.22,6.58,16.38-0.28,21.19c-5.95,4.17-15.09,4.18-21,0
	c-7.55-5.35-7.69-15.67-0.27-21.19C645.16,96.36,648.89,95.39,652.97,95.39z M654.23,121.51c2.66,0.04,6.42-1.26,9.54-4.2
	c4.61-4.34,4.79-11.04,0.47-15.63c-6.04-6.41-17.57-6.26-23.41,0.3c-3.72,4.18-3.87,9.91-0.27,14.21
	C643.69,119.93,647.84,121.48,654.23,121.51z"/>
<path class="st1" d="M591.67,123.75c-0.02,1.03,0.72,0.37,1.11,0.5c-0.23,0.2-0.43,0.45-0.69,0.57c-0.32,0.15-0.77,0.53-1.03,0.14
	C590.66,124.35,591.2,124.02,591.67,123.75z"/>
<path class="st1" d="M517.65,123.28c-3.99-0.16-7.85-1.45-10.88-4.64c-4.5-4.74-4.19-11.37,0.66-15.75
	c5.69-5.13,15.36-5.24,21.17-0.24c5.39,4.64,5.47,12,0.15,16.74C525.68,122.12,522.02,123.26,517.65,123.28z"/>
<path class="st2" d="M411.98,122.71c-4.21-0.17-8.05-1.47-11.02-4.74c-3.51-3.85-3.66-9.27-0.43-13.35
	c5.38-6.77,17.32-6.93,22.9-0.31c4.13,4.91,3.21,11.59-2.15,15.48C418.54,121.77,415.44,122.63,411.98,122.71z"/>
<path class="st3" d="M292.56,121.51c-4.08,0.03-7.5-1.06-10.39-3.59c-4.99-4.37-5.07-11.24-0.2-15.75c5.43-5.02,14.9-5.12,20.41-0.2
	c6.07,5.42,4.64,14.16-2.92,17.93C297.2,121.03,294.81,121.55,292.56,121.51z"/>
<path class="st4" d="M171.82,121.13c-3.71-0.06-7.1-1.06-9.96-3.51c-5.3-4.54-5.2-11.79,0.21-16.21c5.39-4.4,13.62-4.5,19.13-0.22
	c5.83,4.52,5.83,12.28,0,16.82C178.45,120.15,175.28,121.06,171.82,121.13z"/>
<path class="st5" d="M43.26,119.85c-2.71-0.06-5.83-1.09-8.45-3.42c-4.47-3.97-4.47-10.29-0.03-14.29c4.87-4.39,13-4.62,18.12-0.52
	c5.55,4.45,5.1,12.04-0.93,15.96C49.64,119.08,46.89,119.88,43.26,119.85z"/>
<path class="st6" d="M654.23,121.51c-6.39-0.03-10.54-1.58-13.67-5.32c-3.6-4.3-3.45-10.03,0.27-14.21
	c5.84-6.56,17.37-6.71,23.41-0.3c4.32,4.59,4.14,11.29-0.47,15.63C660.66,120.25,656.89,121.56,654.23,121.51z"/>
<g>
	<path class="st7" d="M15.06,33.64v-0.72c0.56-0.33,1.04-0.63,1.42-0.9c0.06-0.68,0.11-1.62,0.15-2.83c0.07-2.06,0.1-3.48,0.1-4.28
		v-6.11c0-0.98-0.03-2.13-0.09-3.44c-0.04-0.83-0.11-1.34-0.2-1.54c-0.07-0.13-0.17-0.22-0.31-0.28c-0.32-0.14-0.99-0.21-2-0.22
		v-0.94c1.42,0.06,2.68,0.09,3.77,0.09c0.84,0,1.98-0.02,3.42-0.06c1.45-0.04,2.57-0.06,3.37-0.06c2.39,0,4.3,0.31,5.75,0.94
		c1.45,0.62,2.68,1.67,3.69,3.14c1.01,1.47,1.52,3.26,1.52,5.37c0,1.52-0.24,2.94-0.72,4.27c-0.48,1.33-1.12,2.49-1.94,3.48
		s-1.69,1.78-2.63,2.36c-0.93,0.58-1.92,1.02-2.94,1.31c-1.03,0.29-2.44,0.44-4.23,0.44c-0.59,0-1.4-0.02-2.41-0.06
		c-1.32-0.04-2.19-0.06-2.6-0.06C17.59,33.52,16.55,33.56,15.06,33.64z M19.59,32.01c1.07,0.19,2.2,0.28,3.39,0.28
		c1.23,0,2.31-0.11,3.25-0.33c0.94-0.22,1.74-0.53,2.41-0.93c0.67-0.4,1.31-0.99,1.93-1.77c0.62-0.78,1.1-1.77,1.44-2.99
		c0.34-1.21,0.5-2.47,0.5-3.77c0-1.86-0.32-3.45-0.97-4.78c-0.65-1.33-1.62-2.35-2.93-3.06s-3.1-1.06-5.37-1.06
		c-1.2,0-2.41,0.09-3.65,0.28c-0.03,0.49-0.05,1.36-0.07,2.6l-0.06,2.17v5.97l0.04,4.64C19.51,29.99,19.54,30.9,19.59,32.01z"/>
	<path class="st7" d="M54.17,32.79v0.85c-1.28-0.07-2.24-0.1-2.89-0.1c-0.72,0-1.45,0.03-2.19,0.1c0.06-0.81,0.1-1.72,0.13-2.72
		c-0.58,0.48-1.28,1.13-2.09,1.96c-0.18,0.19-0.37,0.33-0.54,0.42c-0.42,0.24-0.84,0.41-1.26,0.52c-0.42,0.1-0.92,0.16-1.5,0.16
		c-0.79,0-1.45-0.11-1.98-0.33c-0.53-0.22-0.99-0.55-1.37-1c-0.28-0.33-0.5-0.76-0.65-1.28c-0.15-0.52-0.23-1.16-0.23-1.89
		c0-0.35,0.01-0.68,0.04-0.99c0.02-0.31,0.04-0.61,0.04-0.91V25c0-0.26-0.01-0.91-0.04-1.96c-0.02-0.66-0.06-1.09-0.13-1.29
		c-0.04-0.1-0.1-0.18-0.19-0.24c-0.15-0.1-0.4-0.15-0.77-0.15c-0.54,0-0.96,0-1.27-0.01V20.5c2.09-0.24,3.61-0.62,4.56-1.15
		c0.16-0.09,0.28-0.13,0.37-0.13c0.07,0,0.12,0.02,0.17,0.07c0.04,0.05,0.07,0.12,0.07,0.22c0,0.08,0,0.18-0.01,0.3
		c-0.04,0.32-0.07,0.93-0.1,1.84c-0.06,1.67-0.09,2.78-0.09,3.35v2.92c0,1.22,0.08,2.07,0.24,2.57c0.16,0.49,0.47,0.89,0.93,1.18
		c0.46,0.29,1.03,0.44,1.72,0.44c0.47,0,0.93-0.08,1.39-0.25c0.46-0.16,0.88-0.4,1.25-0.71c0.27-0.23,0.55-0.54,0.83-0.93
		c0.21-0.29,0.36-0.51,0.42-0.67c0.07-0.15,0.11-0.38,0.13-0.68c0.05-0.88,0.07-1.75,0.07-2.62V25c0-0.26-0.01-0.91-0.04-1.96
		c-0.02-0.66-0.06-1.09-0.13-1.29c-0.04-0.1-0.1-0.18-0.19-0.24c-0.15-0.1-0.4-0.15-0.77-0.15c-0.54,0-0.96,0-1.27-0.01V20.5
		c2.09-0.24,3.61-0.62,4.56-1.15c0.16-0.09,0.28-0.13,0.37-0.13c0.07,0,0.12,0.02,0.17,0.07c0.04,0.05,0.07,0.12,0.07,0.22
		c0,0.08,0,0.18-0.01,0.3c-0.03,0.32-0.06,0.95-0.1,1.9c-0.06,1.63-0.09,2.72-0.09,3.29v2.05l0.03,2.08
		c0.03,1.21,0.05,1.92,0.06,2.13c0.01,0.5,0.06,0.86,0.16,1.09c0.05,0.09,0.11,0.17,0.19,0.23c0.08,0.06,0.19,0.12,0.35,0.16
		C52.6,32.75,53.14,32.77,54.17,32.79z"/>
	<path class="st7" d="M67.82,31.32l-0.47,1.08c-0.67,0.43-1.16,0.71-1.47,0.85c-0.46,0.21-0.98,0.39-1.57,0.53
		C63.72,33.93,63.1,34,62.45,34c-1.29,0-2.45-0.27-3.49-0.82c-1.04-0.55-1.85-1.37-2.42-2.46c-0.58-1.09-0.86-2.37-0.86-3.84
		c0-1.15,0.15-2.18,0.46-3.11s0.65-1.6,1.04-2.04c0.28-0.32,0.72-0.69,1.31-1.1c0.59-0.41,1.18-0.74,1.77-0.98
		c0.77-0.33,1.6-0.49,2.5-0.49c1.09,0,2.08,0.25,2.96,0.76c0.88,0.51,1.53,1.2,1.93,2.08c0.41,0.88,0.61,1.87,0.61,2.98
		c0,0.28-0.02,0.62-0.06,1.02c-0.7,0.14-1.33,0.23-1.89,0.27c-1.05,0.08-2.11,0.12-3.16,0.12h-4.69c0.02,1.43,0.26,2.58,0.72,3.47
		s1.1,1.53,1.91,1.95c0.81,0.42,1.66,0.63,2.53,0.63c0.59,0,1.19-0.1,1.77-0.29c0.59-0.19,1.32-0.55,2.18-1.07L67.82,31.32z
		 M58.46,25.18c0.27,0.03,0.79,0.06,1.55,0.09c1.45,0.05,2.45,0.07,3,0.07c1.3,0,2.15-0.02,2.56-0.07c0.01-0.24,0.01-0.42,0.01-0.55
		c0-1.57-0.31-2.73-0.94-3.46c-0.62-0.74-1.46-1.1-2.5-1.1c-1.1,0-1.99,0.4-2.66,1.21C58.81,22.17,58.47,23.44,58.46,25.18z"/>
	<path class="st7" d="M78.41,17.32H77.5c-0.01-2.39-0.06-4.04-0.15-4.96c1.06,0.04,2.73,0.09,4.99,0.15
		c1.84,0.04,3.07,0.06,3.68,0.06c0.66,0,2.2-0.03,4.6-0.09c1.74-0.04,3.01-0.08,3.81-0.12c-0.12,1.12-0.19,2.77-0.23,4.96h-0.93
		l-0.12-1.44c-0.08-0.87-0.13-1.36-0.16-1.48s-0.07-0.2-0.12-0.25s-0.13-0.09-0.24-0.12c-0.14-0.03-0.62-0.07-1.46-0.12
		c-0.84-0.05-1.5-0.07-1.99-0.07H87.4c-0.1,0.96-0.15,2.25-0.15,3.88v8.76c0,1.36,0.01,2.68,0.04,3.97c0.03,0.95,0.1,1.51,0.21,1.69
		c0.11,0.18,0.29,0.31,0.54,0.4s0.95,0.14,2.11,0.16v0.96c-1.74-0.08-3.05-0.12-3.93-0.12c-0.38,0-1.9,0.04-4.56,0.12v-0.96
		c1.16-0.02,1.86-0.07,2.12-0.16c0.25-0.08,0.42-0.2,0.51-0.35c0.13-0.2,0.2-0.68,0.23-1.45c0-0.21,0.02-1.63,0.06-4.25v-8.73
		c0-0.42-0.01-0.88-0.03-1.38l-0.09-2.53h-2.18c-1.26,0-2.25,0.05-2.99,0.15c-0.23,0.03-0.38,0.09-0.45,0.19
		c-0.11,0.17-0.2,0.71-0.29,1.63L78.41,17.32z"/>
	<path class="st7" d="M94.08,21.34v-0.85c1.89-0.22,3.48-0.64,4.76-1.26l0.32,0.24c-0.08,2.13-0.12,3.75-0.12,4.88v2.72
		c0.05,2.59,0.08,4,0.09,4.21c0.01,0.5,0.06,0.86,0.16,1.09c0.05,0.09,0.11,0.17,0.19,0.23c0.08,0.06,0.19,0.12,0.35,0.16
		c0.06,0.01,0.6,0.02,1.62,0.04v0.84c-1.48-0.07-2.66-0.1-3.55-0.1c-0.78,0-2.05,0.03-3.83,0.1V32.8l1.39-0.01
		c0.2-0.01,0.36-0.05,0.47-0.11c0.11-0.06,0.2-0.15,0.26-0.25c0.11-0.2,0.18-0.55,0.2-1.06c0-0.13,0.03-1.56,0.09-4.3v-2.63
		c0-1.49-0.05-2.37-0.15-2.65c-0.06-0.15-0.16-0.26-0.31-0.34S95.23,21.34,94.08,21.34z M97.64,12.56c0.46,0,0.84,0.16,1.16,0.49
		s0.47,0.73,0.47,1.2c0,0.46-0.16,0.85-0.48,1.18s-0.71,0.49-1.15,0.49c-0.46,0-0.85-0.16-1.17-0.49s-0.48-0.72-0.48-1.18
		c0-0.47,0.16-0.87,0.48-1.2S97.18,12.56,97.64,12.56z"/>
	<path class="st7" d="M102.74,33.64V32.8l1.39-0.01c0.2-0.01,0.36-0.05,0.47-0.11c0.11-0.06,0.2-0.15,0.26-0.25
		c0.11-0.2,0.18-0.55,0.2-1.06c0-0.13,0.03-1.56,0.09-4.3v-1.78c0-0.8-0.01-1.66-0.04-2.58c-0.03-0.59-0.08-0.94-0.14-1.05
		c-0.06-0.11-0.17-0.19-0.33-0.25c-0.16-0.06-0.79-0.08-1.9-0.07v-0.85c1.96-0.28,3.4-0.64,4.3-1.09c0.19-0.1,0.32-0.15,0.39-0.15
		s0.12,0.02,0.16,0.07c0.04,0.05,0.06,0.12,0.06,0.22c0,0.07,0,0.15-0.01,0.24c-0.04,0.48-0.07,1.19-0.09,2.14l1.92-1.8
		c0.24-0.22,0.4-0.34,0.45-0.37c0.22-0.13,0.55-0.25,0.97-0.36c0.42-0.11,0.86-0.16,1.32-0.16c0.94,0,1.77,0.23,2.5,0.7
		c0.73,0.47,1.29,1.16,1.68,2.08l1.61-1.53c0.36-0.34,0.61-0.55,0.74-0.63c0.25-0.15,0.61-0.29,1.08-0.42
		c0.47-0.13,0.93-0.19,1.39-0.19c1.11,0,2.04,0.3,2.79,0.91c0.75,0.6,1.23,1.29,1.45,2.06c0.14,0.51,0.2,1.61,0.2,3.3v1.56
		l0.04,2.08c0.03,1.21,0.04,1.92,0.04,2.13c0.02,0.5,0.08,0.86,0.18,1.09c0.04,0.09,0.1,0.17,0.18,0.23
		c0.08,0.06,0.2,0.12,0.36,0.16c0.06,0.01,0.59,0.02,1.61,0.04v0.84c-1.23-0.06-2.06-0.09-2.51-0.09c-0.43,0-1.29,0.03-2.58,0.09
		l0.13-4.13l0.04-1.62V26.6c0-1.68-0.08-2.82-0.25-3.44s-0.51-1.11-1.04-1.49s-1.15-0.57-1.85-0.57c-0.81,0-1.54,0.24-2.19,0.72
		c-0.49,0.37-0.81,0.8-0.96,1.3c-0.16,0.5-0.23,1.47-0.23,2.92v1l0.04,2.08c0.02,1.21,0.03,1.92,0.04,2.13
		c0.02,0.5,0.08,0.86,0.18,1.09c0.04,0.09,0.1,0.17,0.18,0.23c0.08,0.07,0.19,0.12,0.35,0.16c0.07,0.01,0.61,0.02,1.62,0.04v0.84
		c-1.43-0.08-2.58-0.12-3.45-0.12c-0.7,0-1.98,0.04-3.83,0.12V32.8l1.39-0.01c0.21-0.01,0.38-0.05,0.49-0.11
		c0.11-0.06,0.2-0.15,0.26-0.25c0.11-0.2,0.17-0.55,0.19-1.06c0.01-0.13,0.04-1.56,0.09-4.3v-1.17c0-1.29-0.1-2.23-0.29-2.83
		c-0.2-0.59-0.54-1.07-1.02-1.42c-0.49-0.35-1.07-0.53-1.76-0.53c-0.59,0-1.14,0.13-1.66,0.38c-0.52,0.25-0.92,0.57-1.21,0.95
		c-0.28,0.38-0.45,0.78-0.51,1.21c-0.1,0.69-0.15,1.52-0.15,2.49v0.91c0.06,2.6,0.09,4,0.09,4.21c0.02,0.5,0.08,0.86,0.18,1.09
		c0.04,0.09,0.1,0.17,0.18,0.23c0.08,0.07,0.2,0.12,0.37,0.16c0.06,0.01,0.59,0.02,1.61,0.04v0.84c-1.34-0.08-2.49-0.12-3.43-0.12
		C105.69,33.52,104.43,33.56,102.74,33.64z"/>
	<path class="st7" d="M141.42,31.32l-0.47,1.08c-0.67,0.43-1.16,0.71-1.47,0.85c-0.46,0.21-0.98,0.39-1.57,0.53
		c-0.59,0.14-1.21,0.22-1.86,0.22c-1.29,0-2.45-0.27-3.49-0.82c-1.04-0.55-1.85-1.37-2.42-2.46c-0.58-1.09-0.86-2.37-0.86-3.84
		c0-1.15,0.15-2.18,0.46-3.11s0.65-1.6,1.04-2.04c0.28-0.32,0.72-0.69,1.31-1.1c0.59-0.41,1.18-0.74,1.77-0.98
		c0.77-0.33,1.6-0.49,2.5-0.49c1.09,0,2.08,0.25,2.96,0.76c0.88,0.51,1.53,1.2,1.93,2.08c0.41,0.88,0.61,1.87,0.61,2.98
		c0,0.28-0.02,0.62-0.06,1.02c-0.7,0.14-1.33,0.23-1.89,0.27c-1.05,0.08-2.11,0.12-3.16,0.12h-4.69c0.02,1.43,0.26,2.58,0.72,3.47
		c0.46,0.88,1.1,1.53,1.91,1.95c0.81,0.42,1.66,0.63,2.53,0.63c0.59,0,1.19-0.1,1.77-0.29c0.59-0.19,1.32-0.55,2.18-1.07
		L141.42,31.32z M132.06,25.18c0.27,0.03,0.79,0.06,1.55,0.09c1.45,0.05,2.45,0.07,3,0.07c1.3,0,2.15-0.02,2.56-0.07
		c0.01-0.24,0.01-0.42,0.01-0.55c0-1.57-0.31-2.73-0.94-3.46c-0.62-0.74-1.46-1.1-2.5-1.1c-1.1,0-1.99,0.4-2.66,1.21
		C132.41,22.17,132.07,23.44,132.06,25.18z"/>
	<path class="st7" d="M143.6,33.64v-0.87l1.37-0.01c0.21-0.01,0.38-0.05,0.49-0.11c0.11-0.06,0.2-0.15,0.26-0.25
		c0.11-0.2,0.17-0.55,0.19-1.06c0.01-0.13,0.04-1.56,0.1-4.29v-6.21c0-1.67-0.03-3.39-0.09-5.16c-0.04-1.2-0.09-1.87-0.16-2
		c-0.05-0.1-0.13-0.17-0.23-0.21c-0.15-0.07-0.82-0.1-2.02-0.1v-0.88c2.2-0.28,3.73-0.63,4.59-1.05c0.13-0.06,0.22-0.09,0.29-0.09
		c0.07,0,0.12,0.02,0.16,0.07c0.04,0.04,0.06,0.11,0.06,0.19c0,0.07-0.01,0.17-0.03,0.3l-0.01,0.49c-0.05,1.79-0.08,3.31-0.09,4.56
		l-0.03,2.33v7.76c0.05,2.59,0.08,3.99,0.09,4.2c0.01,0.5,0.07,0.86,0.18,1.09c0.04,0.09,0.1,0.17,0.18,0.23
		c0.08,0.06,0.19,0.12,0.35,0.16c0.07,0.01,0.61,0.02,1.62,0.04v0.87c-1.32-0.08-2.49-0.12-3.49-0.12
		C146.41,33.52,145.16,33.56,143.6,33.64z"/>
	<path class="st7" d="M152.21,21.34v-0.85c1.89-0.22,3.48-0.64,4.76-1.26l0.32,0.24c-0.08,2.13-0.12,3.75-0.12,4.88v2.72
		c0.05,2.59,0.08,4,0.09,4.21c0.01,0.5,0.06,0.86,0.16,1.09c0.05,0.09,0.11,0.17,0.19,0.23c0.08,0.06,0.19,0.12,0.35,0.16
		c0.06,0.01,0.6,0.02,1.62,0.04v0.84c-1.48-0.07-2.66-0.1-3.55-0.1c-0.78,0-2.05,0.03-3.83,0.1V32.8l1.39-0.01
		c0.2-0.01,0.36-0.05,0.47-0.11c0.11-0.06,0.2-0.15,0.26-0.25c0.11-0.2,0.18-0.55,0.2-1.06c0-0.13,0.03-1.56,0.09-4.3v-2.63
		c0-1.49-0.05-2.37-0.15-2.65c-0.06-0.15-0.16-0.26-0.31-0.34C154.01,21.37,153.36,21.34,152.21,21.34z M155.78,12.56
		c0.46,0,0.84,0.16,1.16,0.49c0.32,0.33,0.47,0.73,0.47,1.2c0,0.46-0.16,0.85-0.48,1.18s-0.71,0.49-1.15,0.49
		c-0.46,0-0.85-0.16-1.17-0.49s-0.48-0.72-0.48-1.18c0-0.47,0.16-0.87,0.48-1.2S155.32,12.56,155.78,12.56z"/>
	<path class="st7" d="M160.67,33.64V32.8l1.39-0.01c0.2-0.01,0.36-0.05,0.47-0.11c0.11-0.06,0.2-0.15,0.26-0.25
		c0.11-0.2,0.18-0.55,0.2-1.06c0-0.13,0.03-1.56,0.09-4.3v-1.78c0-0.8-0.01-1.66-0.04-2.58c-0.03-0.59-0.08-0.94-0.14-1.05
		c-0.06-0.11-0.17-0.19-0.33-0.25c-0.16-0.06-0.79-0.08-1.9-0.07v-0.85c1.96-0.28,3.4-0.64,4.3-1.09c0.19-0.1,0.32-0.15,0.39-0.15
		c0.07,0,0.12,0.02,0.16,0.07c0.04,0.05,0.06,0.12,0.06,0.22c0,0.07,0,0.15-0.01,0.24c-0.03,0.36-0.06,1.12-0.09,2.28l2.72-2.38
		c0.8-0.3,1.56-0.45,2.27-0.45c0.79,0,1.54,0.17,2.24,0.49c0.71,0.33,1.24,0.74,1.59,1.24c0.36,0.5,0.59,1.13,0.71,1.89
		c0.07,0.45,0.1,1.7,0.1,3.76v2.65c0,1.3,0.03,2.18,0.1,2.65c0.05,0.3,0.12,0.51,0.23,0.62c0.1,0.12,0.26,0.19,0.47,0.22l1.56,0.04
		v0.84c-0.95-0.07-1.75-0.1-2.38-0.1c-0.55,0-1.45,0.03-2.72,0.1c0.14-2.47,0.2-4.02,0.2-4.67v-2.52c0-1.57-0.06-2.59-0.18-3.08
		c-0.17-0.67-0.54-1.21-1.13-1.62c-0.59-0.41-1.29-0.61-2.12-0.61c-0.73,0-1.4,0.18-2.01,0.53c-0.6,0.35-1.04,0.76-1.29,1.23
		c-0.26,0.46-0.39,1.25-0.39,2.35v1.81c0.06,2.6,0.09,4,0.09,4.21c0.02,0.5,0.08,0.86,0.18,1.09c0.04,0.09,0.1,0.17,0.18,0.23
		c0.08,0.07,0.2,0.12,0.37,0.16c0.06,0.01,0.59,0.02,1.61,0.04v0.84c-1.19-0.07-2.26-0.1-3.22-0.1
		C163.85,33.54,162.52,33.57,160.67,33.64z"/>
	<path class="st7" d="M190.56,31.32l-0.47,1.08c-0.67,0.43-1.16,0.71-1.47,0.85c-0.46,0.21-0.98,0.39-1.57,0.53
		c-0.59,0.14-1.21,0.22-1.86,0.22c-1.29,0-2.45-0.27-3.49-0.82c-1.04-0.55-1.85-1.37-2.42-2.46c-0.58-1.09-0.86-2.37-0.86-3.84
		c0-1.15,0.15-2.18,0.46-3.11s0.65-1.6,1.04-2.04c0.28-0.32,0.72-0.69,1.31-1.1c0.59-0.41,1.18-0.74,1.77-0.98
		c0.77-0.33,1.6-0.49,2.5-0.49c1.09,0,2.08,0.25,2.96,0.76c0.88,0.51,1.53,1.2,1.93,2.08s0.61,1.87,0.61,2.98
		c0,0.28-0.02,0.62-0.06,1.02c-0.7,0.14-1.33,0.23-1.89,0.27c-1.05,0.08-2.11,0.12-3.16,0.12h-4.69c0.02,1.43,0.26,2.58,0.72,3.47
		c0.46,0.88,1.1,1.53,1.91,1.95c0.81,0.42,1.66,0.63,2.53,0.63c0.59,0,1.19-0.1,1.77-0.29c0.59-0.19,1.32-0.55,2.18-1.07
		L190.56,31.32z M181.2,25.18c0.27,0.03,0.79,0.06,1.55,0.09c1.45,0.05,2.45,0.07,3,0.07c1.3,0,2.15-0.02,2.56-0.07
		c0.01-0.24,0.01-0.42,0.01-0.55c0-1.57-0.31-2.73-0.94-3.46s-1.46-1.1-2.5-1.1c-1.1,0-1.99,0.4-2.66,1.21
		C181.55,22.17,181.21,23.44,181.2,25.18z"/>
</g>
<text transform="matrix(1 0 0 1 13.3511 81.6143)" class="st8 st9">Reading</text>
<text transform="matrix(1 0 0 1 22.3511 151.6143)" class="st8 st9">10/13</text>
<text transform="matrix(1 0 0 1 151.3511 151.6143)" class="st8 st9">10/17</text>
<text transform="matrix(1 0 0 1 270.3511 151.6143)" class="st8 st9">11/18</text>
<text transform="matrix(1 0 0 1 392.3511 151.6143)" class="st8 st9">11/23</text>
<text transform="matrix(1 0 0 1 494.3511 151.6143)" class="st8 st9">11/24</text>
<text transform="matrix(1 0 0 1 636.3511 151.6143)" class="st8 st9">12/13</text>
<text transform="matrix(1 0 0 1 155.3511 81.6143)" class="st8 st9">Test</text>
<text transform="matrix(1 0 0 1 257.3511 81.6143)" class="st8 st9">Assignment</text>
<text transform="matrix(1 0 0 1 392.3511 81.6143)" class="st8 st9">Quiz</text>
<text transform="matrix(1 0 0 1 461.3511 81.6143)" class="st8 st9">Composite Project</text>
<text transform="matrix(1 0 0 1 676.3511 115.6143)" class="st8 st9">Finals</text>
</svg>
