<?xml version="1.0" encoding="utf-8"?>
<!-- Generator: Adobe Illustrator 23.0.4, SVG Export Plug-In . SVG Version: 6.00 Build 0)  -->
<svg version="1.1" id="Layer_1" xmlns="http://www.w3.org/2000/svg" xmlns:xlink="http://www.w3.org/1999/xlink" x="0px" y="0px"
	 viewBox="0 0 142 140" style="enable-background:new 0 0 142 140;" xml:space="preserve">
<style type="text/css">
	.st0{fill:#006837;}
	.st1{fill:#FEF8F8;}
</style>
<path class="st0" d="M5.3,86.2c3.3-28.44,14.54-53.42,42.01-71.15c8.71-5.62,18.6-9.02,29.42-9.84c13.57-1.03,26.36,1.5,36.81,9.26
	c15.07,11.19,21.88,25.87,19.18,42.9c-4.02,25.37-19.97,43.14-47.87,52.25c-8.57,2.8-17.54,3.53-26.66,2.54
	c-1.42-0.15-2.93-0.22-3.08-1.71c-0.19-1.86,1.78-0.85,2.69-1.2c3.27-1.26,6.69,0.41,10.3-0.51c3.22-0.82,6.74-1.3,10-2.21
	c27.25-7.61,45.87-30.62,45.01-55.45c-0.58-16.68-14.06-31.26-32.21-34.17c-14.94-2.4-27.75,2.07-38.97,10.47
	C35.9,39.4,27.76,55.26,22.98,72.69c-2.18,7.92-2.71,15.96-0.46,23.94c4.31,15.25,19.76,24.87,37.77,25.66
	c21.29,0.94,38.12-7.39,52.51-20.14c8.79-7.79,14.94-17.07,18.9-27.37c0.93-2.42,2.76-3.45,4.89-3.06c2.43,0.45,2.67,2.64,2.23,4.67
	c-6.37,29.78-33.39,54.09-67.54,58.89c-27.64,3.88-54.38-9.57-62.84-31.52C6.27,98.11,5.34,92.28,5.3,86.2z"/>
<path class="st0" d="M70.92,71.35c-5.83,1.84-11.48,3.65-17.15,5.41c-1.61,0.5-1.69,1.56-1.9,2.78c-1.4,8.31-1.85,16.67-2.04,25.04
	c-0.05,2.21-0.37,4.29-3.19,4.79c-2.75,0.49-4.73-0.97-5.98-2.99c-1.07-1.72-1.31-3.66-1.4-5.6c-0.31-6.45,0.35-12.85,1.45-19.41
	c-2.55,0.35-4.51,1.36-6.46,2.38c-1.22,0.64-2.49,1.2-3.7,0.16c-1.27-1.1-2.09-2.38-1.3-4.05c1.1-2.36,3.18-3.97,5.83-4.61
	c6.16-1.5,8.68-4.99,10.06-10.33c2.8-10.78,7.15-21.18,13.85-30.67c1.6-2.27,2.51-5.5,6.71-5.64c0.34-0.01,0.95-0.6,0.93-0.89
	c-0.19-2.47,1.38-3.05,3.72-2.59c2.62,0.52,5.65,0.24,6.36,3.74c1.79,8.89,2.89,17.85,4.12,26.79c1.41,10.24,2.4,20.52,3.48,30.79
	c0.58,5.47-0.78,7.33-6.3,9.16c-3.17,1.05-4.01,0.58-4.4-2.65C72.76,86.23,72,79.5,71.21,72.77C71.16,72.37,71.05,71.98,70.92,71.35
	z M67.51,37.4C61.67,47.05,58.04,56.35,55,65.84c-0.43,1.35-0.31,2.17,1.69,1.54c3.94-1.25,7.89-2.47,11.85-3.68
	c1-0.3,1.81-0.63,1.68-1.76C69.33,54.03,68.47,46.12,67.51,37.4z"/>
<path class="st0" d="M95.46,64.8c-2.29,0.81-4.35,1.44-6.31,2.25c-2.51,1.04-4.21,0.18-4.92-1.8c-0.7-1.95-1.72-4.29,1.67-5.43
	c2.3-0.77,4.54-1.71,6.91-2.23c2.29-0.51,2.9-1.6,2.71-3.47c-0.22-2.24-0.13-4.5-0.38-6.74c-0.21-1.9-0.1-3.61,2.55-3.85
	c2.59-0.23,5.13,0.12,5.58,2.95c0.25,1.58,0.29,3.22,0.1,4.8c-0.27,2.28,0.21,3.27,3.07,2.13c1.67-0.67,3.47-1.34,5.26-1.45
	c1.86-0.11,4.54-0.74,5.15,1.69c0.56,2.25,0.39,4.57-2.99,5.4c-2.37,0.58-4.67,1.37-7.06,1.86c-1.79,0.37-2.34,1.06-2.23,2.67
	c0.22,3.1,0.2,6.22,0.12,9.33c-0.06,2.58-2.38,4.16-5.78,4.04c-2.86-0.1-3.14-1.92-3.24-3.83c-0.07-1.39-0.18-2.78-0.22-4.18
	C95.43,67.68,95.46,66.42,95.46,64.8z"/>
<path class="st1" d="M67.51,37.4c0.96,8.72,1.82,16.63,2.71,24.53c0.13,1.13-0.68,1.46-1.68,1.76c-3.96,1.21-7.91,2.43-11.85,3.68
	c-2,0.63-2.12-0.19-1.69-1.54C58.04,56.35,61.67,47.05,67.51,37.4z"/>
</svg>
