<?xml version="1.0" encoding="utf-8"?>
<!-- Generator: Adobe Illustrator 23.0.4, SVG Export Plug-In . SVG Version: 6.00 Build 0)  -->
<svg version="1.1" id="Layer_1" xmlns="http://www.w3.org/2000/svg" xmlns:xlink="http://www.w3.org/1999/xlink" x="0px" y="0px"
	 viewBox="0 0 250 100" style="enable-background:new 0 0 250 100;" xml:space="preserve">
<style type="text/css">
	.st0{fill:#FFFFFF;}
	.st1{font-family:'PTSerif-Caption';}
	.st2{font-size:21.1641px;}
	.st3{fill:#FF0303;}
	.st4{fill:#B5E645;}
	.st5{font-family:'Papyrus';}
	.st6{font-size:61.2756px;}
</style>
<g>
	<!-- Background transparent -->
	<!-- <g>
		<g>
			<rect y="0" class="st0" width="250" height="99"/>
		</g>
	</g> -->
	<text transform="matrix(0.7808 0 0 1 67.2559 94.224)" class="st1 st2">Learn Connect Work</text>
	<path d="M56.55,13.54c0.08,1.8,1.73,2.81,2.64,4.18c4.92,7.41,4.17,16.4,2.88,25.56c-1.12,7.95-2.33,15.91-3.18,23.81
		c-0.8,7.36-0.11,14.18,8.02,17.65l0.01-0.04c-5.6,2.99-11.6,4.45-17.51,5.97c-7.08,1.83-14.12,3.09-20.94,2.92
		c-9.95-0.25-15.75-4.49-16.09-12.01c-0.2-4.5,0.78-9.15,2.74-13.91c4.13-10.06,8.52-20.12,12.05-30.18
		c0.58-1.65,1.09-3.28,1.05-4.85c3.73-9.68,6.4-19.13,0.09-26.55c5.85-2.01,9.85-0.17,14.12,0.9c3.42,0.86,6.51,2.16,9.75,3.26
		C53.63,11.36,55.09,12.45,56.55,13.54z"/>
	<path class="st3" d="M43.68,49.65c3.92-20.7,30.81-34.95,60.42-48.44c-2.26,6.66-74.6,40.32-75.96,47.09
		c-3.38,16.88,73.62,4.28,91.55,17.64c3.22,2.4,8.72,4.69,2.75,7.99c-5.34,2.95-11.97,2.86-18.3,1.43
		C80.7,70.05,57.03,64.84,45.16,52.5C44.33,51.64,44.16,50.6,43.68,49.65z"/>
	<text transform="matrix(0.896 0 0 1 62.5 57.1049)" class="st4 st5 st6">W</text>
</g>
</svg>
