<?xml version="1.0" encoding="utf-8"?>
<!-- Generator: Adobe Illustrator 23.0.4, SVG Export Plug-In . SVG Version: 6.00 Build 0)  -->
<svg version="1.1" id="Layer_1" xmlns="http://www.w3.org/2000/svg" xmlns:xlink="http://www.w3.org/1999/xlink" x="0px" y="0px"
	 viewBox="0 0 388 155" style="enable-background:new 0 0 388 155;" xml:space="preserve">
<style type="text/css">
	.st0{fill:#4F5B55;}
	.st1{fill:#411901;}
	.st2{fill:#F2F2F2;}
	.st3{fill:#FFF9D4;}
</style>
<g>
	<ellipse class="st0" cx="286.5" cy="84" rx="99.5" ry="68"/>
	<g>
		<path class="st1" d="M88.29,94.54c-2.81,7.85-7.85,12.03-15.05,12.03c-8.5,0-13.68-6.41-13.68-16.35c0-10.15,5.83-17.5,14.91-17.5
			c4.46,0,7.7,1.73,10.01,4.97c1.44,2.02,2.16,4.32,2.45,8.21H64.75c0.36,5.47,0.72,8.28,3.31,11.74c2.02,2.66,4.68,3.96,7.99,3.96
			c4.82,0,7.56-2.23,11.09-7.56L88.29,94.54z M79.58,83.59c-0.79-5.83-2.3-8.28-7.06-8.28c-4.03,0-6.84,2.88-7.63,8.28H79.58z"/>
		<path class="st1" d="M121.56,103.11c-2.16,2.74-4.03,3.46-6.48,3.46c-2.66,0-4.25-1.44-4.61-5.26h-0.07
			c-3.82,4.32-7.34,5.26-10.44,5.26c-4.46,0-7.56-2.74-7.56-7.49c0-3.74,2.23-6.55,5.04-8.42c2.16-1.44,4.82-2.81,12.96-5.83v-3.89
			c0-4.46-2.38-6.48-5.62-6.48c-2.88,0-5.04,1.58-5.04,3.53c0,1.3,0.43,1.51,0.43,3.02c0,1.37-1.44,2.95-3.31,2.95
			c-1.51,0-3.1-1.37-3.1-3.31c0-1.87,1.15-4.18,3.67-5.76c2.02-1.3,5.04-2.16,8.28-2.16c4.03,0,6.77,1.15,8.5,3.24
			c1.73,2.09,2.02,3.6,2.02,7.99v13.75c0,3.31,0.94,4.75,2.23,4.75c1.15,0,1.87-0.36,3.1-1.37V103.11z M110.4,86.54
			c-4.46,1.58-7.42,3.1-9.22,4.75c-1.73,1.58-2.45,3.31-2.45,5.54c0,3.82,2.16,5.54,4.97,5.54c1.44,0,2.95-0.36,4.18-1.15
			c2.09-1.44,2.52-2.45,2.52-4.54V86.54z"/>
		<path class="st1" d="M133.22,79.49c3.6-5.18,5.62-6.77,8.64-6.77c2.45,0,3.96,1.44,3.96,3.82c0,2.02-1.08,3.24-2.81,3.24
			c-0.94,0-1.73-0.36-2.88-1.44c-0.79-0.72-1.44-1.08-1.87-1.08c-2.02,0-5.04,3.6-5.04,5.9v16.2c0,4.1,1.22,5.18,6.12,5.4v1.08
			h-17.28v-1.08c4.61-0.86,5.11-1.37,5.11-4.97v-18c0-3.17-0.65-4.32-2.45-4.32c-0.86,0-1.51,0.07-2.52,0.29v-1.15
			c4.25-1.37,6.84-2.38,10.66-3.89l0.36,0.14V79.49z"/>
		<path class="st1" d="M167.13,105.84l0.07-1.08c3.6-0.29,4.46-1.73,4.46-6.48V83.95c0-5.11-1.73-7.27-5.26-7.27
			c-2.38,0-4.1,0.86-7.42,4.1v19.87c0,2.81,1.01,3.82,4.68,4.1v1.08h-15.19v-1.08c3.67-0.29,4.46-1.44,4.46-5.69v-17.5
			c0-3.53-0.5-4.68-2.52-4.68c-0.79,0-1.58,0.07-2.09,0.29v-1.22c3.96-1.15,6.34-1.94,9.86-3.24l0.58,0.22v5.62h0.07
			c3.74-4.25,7.06-5.83,10.37-5.83c5.47,0,8.5,3.96,8.5,11.09v15.91c0,3.89,0.86,4.68,4.39,5.04v1.08H167.13z"/>
		<path class="st2" d="M228.57,82.78c4.75,0.79,6.7,2.09,8.78,3.96c2.3,2.09,3.53,5.11,3.53,8.28c0,7.99-6.77,12.82-17.21,12.82
			h-24.27v-1.37c5.69-0.14,6.91-1.3,6.91-6.77V68.24c0-5.69-1.08-6.34-6.91-6.7v-1.37h20.16c12.46,0,18.87,4.39,18.87,12.02
			c0,2.95-1.15,5.9-2.95,7.49c-1.73,1.51-3.17,2.09-6.91,3.02V82.78z M220.29,81.49c7.27,0,10.8-2.95,10.8-8.93
			c0-6.05-4.18-9.72-12.75-9.72h-2.95c-1.22,0-1.73,0.65-1.73,2.3v14.44c0,1.05,0.85,1.9,1.9,1.9H220.29z M213.67,101.94
			c0,2.45,1.15,3.24,4.46,3.24c6.05,0,8.57-0.29,11.74-3.1c1.8-1.58,2.74-4.03,2.74-7.13c0-3.46-1.01-6.12-3.38-7.7
			c-3.97-2.65-6.6-2.62-13.59-2.82c-1.07-0.03-1.96,0.83-1.96,1.9L213.67,101.94z"/>
		<path class="st2" d="M263.85,108.56c-8.71,0-15.55-7.13-15.55-17.14s6.48-16.71,16.2-16.71c8.78,0,15.55,6.55,15.55,16.49
			C280.05,101.22,273.57,108.56,263.85,108.56z M269.97,80.34c-1.73-2.16-3.74-3.6-6.84-3.6c-4.97,0-8.35,4.25-8.35,11.45
			c0,5.69,1.15,10.87,3.82,14.76c1.58,2.3,3.89,3.6,6.48,3.6c5.33,0,8.5-5.04,8.5-13.39C273.57,88.26,272.27,83.29,269.97,80.34z"/>
		<path class="st2" d="M314.03,104.42c0,0.44-0.15,0.88-0.44,1.21c-1.98,2.3-3.76,2.93-6.05,2.93c-2.66,0-4.25-1.44-4.61-5.26h-0.07
			c-3.82,4.32-7.34,5.26-10.44,5.26c-4.46,0-7.56-2.74-7.56-7.49c0-3.74,2.23-6.55,5.04-8.42c2.05-1.36,4.55-2.66,11.73-5.37
			c0.74-0.28,1.23-0.99,1.23-1.78l0-2.57c0-4.46-2.38-6.48-5.62-6.48c-2.88,0-5.04,1.58-5.04,3.53c0,1.3,0.43,1.51,0.43,3.02
			c0,1.37-1.44,2.95-3.31,2.95c-1.51,0-3.1-1.37-3.1-3.31c0-1.87,1.15-4.18,3.67-5.76c2.02-1.3,5.04-2.16,8.28-2.16
			c4.03,0,6.77,1.15,8.5,3.24c1.73,2.09,2.02,3.6,2.02,7.99v13.75c0,3.31,0.94,4.75,2.23,4.75c1.15,0,1.87-0.36,3.1-1.37V104.42z
			 M302.87,91.3c0-1.35-1.37-2.27-2.62-1.76c-3.03,1.23-5.17,2.45-6.59,3.76c-1.73,1.58-2.45,3.31-2.45,5.54
			c0,3.82,2.16,5.54,4.97,5.54c1.44,0,2.95-0.36,4.18-1.15c2.09-1.44,2.52-2.45,2.52-4.54L302.87,91.3z"/>
		<path class="st2" d="M325.7,76.01c0,1.7,2.08,2.56,3.26,1.33c1.85-1.93,3.4-2.61,5.38-2.61c2.45,0,3.96,1.44,3.96,3.82
			c0,2.02-1.08,3.24-2.81,3.24c-0.94,0-1.73-0.36-2.88-1.44c-0.79-0.72-1.44-1.08-1.87-1.08c-2.02,0-5.04,3.6-5.04,5.9v16.2
			c0,4.1,1.22,5.18,6.12,5.4v1.08h-17.28v-1.08c4.61-0.86,5.11-1.37,5.11-4.97v-18c0-3.17-0.65-4.32-2.45-4.32
			c-0.86,0-1.51,0.07-2.52,0.29v-1.15c4.25-1.37,6.84-2.38,10.66-3.89l0.36,0.14V76.01z"/>
		<path class="st2" d="M362.78,108.56l-0.29-0.22v0c0-1.53-1.72-2.44-2.97-1.56c-1.74,1.23-3.74,1.78-6.24,1.78
			c-7.99,0-13.32-6.26-13.32-15.48c0-10.23,6.7-18.36,14.98-18.36c1.82,0,3.26,0.31,4.76,1.12c1.26,0.68,2.8-0.24,2.8-1.67v-7.59
			c0-2.95-0.65-3.67-3.31-3.67c-0.58,0-1.01,0-1.58,0.07v-1.15c4.61-1.22,7.13-1.94,10.58-3.17l0.36,0.14v40.83
			c0,3.31,0.58,4.1,3.17,4.1c0.36,0,0.43,0,1.66-0.07v1.15L362.78,108.56z M362.49,83.94c0-3.82-3.46-7.2-7.34-7.2
			c-5.47,0-9,5.33-9,13.47c0,8.86,3.89,14.62,9.94,14.62c2.23,0,4.03-0.79,5.33-2.3c0.65-0.72,1.08-1.51,1.08-2.02V83.94z"/>
	</g>
	<path class="st3" d="M147.29,144.15c-5.23,4.08-9.72,5.65-14.49,5.57c-38.49-0.63-76.98-1.22-115.45-1.93
		c-10.64-0.2-16.06-7.35-13.48-17.58C13.2,93.32,22.58,56.43,32.02,19.54C34.58,9.55,44.04,2.14,53.8,2.25
		c9.93,0.11,15.52,7.83,12.93,18.08c-7.62,30.11-15.23,60.22-23.08,90.32c-0.89,3.4,0.11,3.79,3.11,3.82
		c30.91,0.4,61.78,0.97,92.68,1.42c6.81,0.1,12.06,2.08,14.49,7.89C156.83,130.75,153.75,139.21,147.29,144.15z"/>
</g>
</svg>
