<?xml version="1.0" encoding="utf-8"?>
<!-- Generator: Adobe Illustrator 23.0.4, SVG Export Plug-In . SVG Version: 6.00 Build 0)  -->
<svg version="1.1" id="Layer_1" xmlns="http://www.w3.org/2000/svg" xmlns:xlink="http://www.w3.org/1999/xlink" x="0px" y="0px"
	 viewBox="0 0 279 70" style="enable-background:new 0 0 279 70;" xml:space="preserve">
<style type="text/css">
	.st0{fill:#FFFFFF;stroke:#000000;}
	.st1{fill:#BDCCD4;stroke:#000000;stroke-miterlimit:10;}
</style>
<path class="st0" d="M30.33,2.37c1.08,0.85,1.52,2.48,1.33,4.88c-0.14,1.88-0.56,3.69-1.25,5.43c-1.47,3.69-3.9,8.97-7.29,15.85
	c-3.39,6.88-5.81,12.13-7.26,15.77c-2.55,6.4-2.53,10.62,0.06,12.65c1.16,0.91,3.04,1.66,5.64,2.24c2.6,0.59,4.49,1.33,5.64,2.24
	c1.08,0.85,1.64,2.18,1.68,3.99c0.03,1.45-0.28,2.99-0.92,4.61c-5.01-1.16-9.83-3.55-14.47-7.19C9.88,59.99,8.04,56.2,8,51.47
	c-0.02-3.65,1.06-8.21,3.24-13.69c1.27-3.2,3.33-7.81,6.18-13.83c2.85-6.02,4.91-10.63,6.18-13.83c0.24-0.6,0.59-1.57,1.05-2.92
	c0.46-1.35,0.82-2.35,1.08-3c0.26-0.65,0.59-1.35,0.99-2.11"/>
<path class="st1" d="M53.8,53.86c0,3.11-1.5,5.53-4.51,7.27c-2.35,1.37-4.8,2.05-7.36,2.05c-6.81,0-10.22-5.44-10.22-16.31
	c0-4.47,0.77-9.45,2.32-14.91c1.9-6.71,4.2-10.07,6.9-10.07c2.43,0,5.05,1.52,7.86,4.57C51.59,29.5,53,32.67,53,35.96
	c0,4.1-1.31,7.36-3.91,9.79c-2.3,2.18-5.04,3.26-8.23,3.26c-0.62,0-1.62-0.53-2.99-1.58c0.18,5.9,1.41,8.85,3.72,8.85
	c1.95,0,3.86-0.78,5.74-2.33c1.88-1.55,3.09-2.33,3.62-2.33C52.84,51.62,53.8,52.36,53.8,53.86z M46.56,36.24
	c0-1.55-0.32-3.03-0.96-4.43c-0.64-1.4-1.49-2.1-2.55-2.1c-1.46,0-2.59,0.9-3.38,2.7c-0.66,1.55-1,3.39-1,5.5
	c0,1.18,0.29,2.14,0.86,2.89c0.57,0.75,1.3,1.12,2.19,1.12C44.95,41.92,46.56,40.03,46.56,36.24z"/>
<path class="st1" d="M80.4,46.21c0,8.02-0.18,13.67-0.53,16.96c-0.22,1.93-1.15,2.89-2.79,2.89c-2.48,0-3.58-1.74-3.32-5.22
	c-2.21,1.49-4.51,2.24-6.9,2.24c-2.3,0-4.49-0.81-6.57-2.42c-2.48-1.93-3.72-4.38-3.72-7.36c0-2.92,1.42-5.65,4.25-8.2
	c2.56-2.3,4.98-3.45,7.23-3.45h5.64v-2.22c0.04-6.47-1.33-9.71-4.11-9.71c-3.49,0-5.24,2.28-5.24,6.83c0,1.54-0.62,2.31-1.86,2.31
	c-0.75,0-1.54-0.48-2.36-1.44c-0.82-0.96-1.23-1.97-1.23-3.03c0-3.48,0.88-6.34,2.65-8.58c1.77-2.24,3.89-3.36,6.37-3.36
	C76.24,22.44,80.4,30.37,80.4,46.21z M73.7,49.57c0-1.24-0.66-1.86-1.99-1.86c-5.53,0-8.29,1.83-8.29,5.5
	c0,1.99,1.22,2.98,3.65,2.98c1.5,0,2.92-0.59,4.25-1.77C72.9,53.11,73.7,51.49,73.7,49.57z"/>
<path class="st1" d="M103.02,29.99c0,0.44-0.04,1.12-0.13,2.05c-0.93,1.86-1.9,2.8-2.92,2.8c-0.84,0-1.59-0.68-2.26-2.05
	c-0.09-2.8-0.8-4.19-2.12-4.19c-0.8,0-1.77,2.95-2.92,8.86c-0.53,2.61-0.8,6.25-0.8,10.91c0,4.41,0.14,7.08,0.43,8.02
	c0.33,1.18,0.5,1.99,0.5,2.42c0,1.06-0.34,1.91-1.02,2.56c-0.68,0.65-1.43,0.98-2.27,0.98c-2.37,0-3.55-1.55-3.55-4.66
	c0-0.31,0.06-0.75,0.17-1.31c0.11-0.56,0.17-0.96,0.17-1.21c0-3.17-0.11-7.88-0.33-14.12c-0.22-6.25-0.33-10.92-0.33-14.03
	c0-2.8,1.19-4.19,3.58-4.19c1.41,0,2.39,0.59,2.92,1.77c1.24-1.93,2.63-2.89,4.18-2.89c1.06,0,2.08,0.41,3.05,1.21
	c0.66,0.5,1.44,1.57,2.32,3.22C102.58,27.77,103.02,29.06,103.02,29.99z"/>
<path class="st1" d="M130.89,61.41c-0.66,1.43-1.48,2.14-2.45,2.14c-0.75,0-1.99-0.62-3.72-1.86v-1.12c0-1.37,0.02-3.39,0.07-6.06
	c0.04-2.67,0.07-4.63,0.07-5.87c0-13.3-1.41-19.95-4.22-19.95c-0.79,0-1.69,0.87-2.7,2.61c-3.12,5.35-4.68,11.78-4.68,19.3
	c0,1.06,0.14,2.63,0.43,4.71c0.29,2.08,0.43,3.65,0.43,4.71c0,0.87-0.29,1.58-0.86,2.14c-0.58,0.56-1.19,0.84-1.86,0.84
	c-2.65,0-3.98-2.36-3.98-7.08V36.43c0-0.5,0.04-1.23,0.13-2.19c0.09-0.96,0.13-1.69,0.13-2.19c0-0.75-0.08-1.83-0.23-3.26
	c-0.16-1.43-0.23-2.49-0.23-3.17c0-0.99,0.41-1.94,1.23-2.84c0.82-0.9,1.56-1.35,2.22-1.35c0.97,0,1.97,0.78,2.99,2.33l-0.2,3.73
	c1.64-3.67,3.65-5.5,6.04-5.5c1.55,0,3.18,0.75,4.91,2.24c1.73,1.49,2.99,3.17,3.78,5.03c1.81,4.72,2.72,10.94,2.72,18.64V61.41z"/>
<path class="st1" d="M197.3,45.77c0,5.59-1,10.38-2.99,14.35c-2.3,4.54-5.35,6.8-9.16,6.8c-3.89,0-6.83-1.86-8.82-5.59
	c-1.81-3.29-2.72-7.77-2.72-13.42c0-5.59,1-10.87,2.99-15.85c2.3-5.9,5.28-8.85,8.96-8.85c1.15,0,2.59,0.72,4.31,2.14
	C194.83,29.52,197.3,36.32,197.3,45.77z M191.47,45.58c0-9.51-1.64-14.26-4.91-14.26c-2.34,0-4.11,2.02-5.31,6.06
	c-0.89,3.05-1.33,6.49-1.33,10.35c0,8.27,1.75,12.4,5.24,12.4c2.26,0,3.94-1.71,5.04-5.13C191.04,52.39,191.47,49.25,191.47,45.58z"
	/>
<path class="st1" d="M224.77,48.28c0,8.02-0.18,13.67-0.53,16.96c-0.22,1.93-1.15,2.89-2.79,2.89c-2.48,0-3.58-1.74-3.32-5.22
	c-2.21,1.49-4.51,2.24-6.9,2.24c-2.3,0-4.49-0.81-6.57-2.42c-2.48-1.93-3.72-4.38-3.72-7.36c0-2.92,1.42-5.65,4.25-8.2
	c2.56-2.3,4.98-3.45,7.23-3.45h5.64V41.5c0.04-6.47-1.33-9.71-4.11-9.71c-3.49,0-5.24,2.28-5.24,6.83c0,1.54-0.62,2.31-1.86,2.31
	c-0.75,0-1.54-0.48-2.36-1.44c-0.82-0.96-1.23-1.97-1.23-3.03c0-3.48,0.88-6.34,2.65-8.58c1.77-2.24,3.89-3.36,6.37-3.36
	C220.61,24.51,224.77,32.44,224.77,48.28z M218.07,51.64c0-1.24-0.66-1.86-1.99-1.86c-5.53,0-8.29,1.83-8.29,5.5
	c0,1.99,1.22,2.98,3.65,2.98c1.5,0,2.92-0.59,4.25-1.77C217.27,55.18,218.07,53.57,218.07,51.64z"/>
<path class="st1" d="M247.39,32.07c0,0.44-0.04,1.12-0.13,2.05c-0.93,1.86-1.9,2.8-2.92,2.8c-0.84,0-1.59-0.68-2.26-2.05
	c-0.09-2.8-0.8-4.19-2.12-4.19c-0.8,0-1.77,2.95-2.92,8.86c-0.53,2.61-0.8,6.25-0.8,10.91c0,4.41,0.14,7.08,0.43,8.02
	c0.33,1.18,0.5,1.99,0.5,2.42c0,1.06-0.34,1.91-1.02,2.56c-0.68,0.65-1.43,0.98-2.27,0.98c-2.37,0-3.55-1.55-3.55-4.66
	c0-0.31,0.06-0.75,0.17-1.31c0.11-0.56,0.17-0.96,0.17-1.21c0-3.17-0.11-7.88-0.33-14.12c-0.22-6.25-0.33-10.92-0.33-14.03
	c0-2.8,1.19-4.19,3.58-4.19c1.41,0,2.39,0.59,2.92,1.77c1.24-1.93,2.63-2.89,4.18-2.89c1.06,0,2.08,0.41,3.05,1.21
	c0.66,0.5,1.44,1.57,2.32,3.22C246.95,29.84,247.39,31.13,247.39,32.07z"/>
<path class="st1" d="M271.44,2.98c1.04,0.99,1.56,2.49,1.56,4.47c0,1.37-0.13,3.14-0.4,5.31c-0.35,2.92-0.58,4.66-0.66,5.22
	c-0.13,1.93-0.34,7.61-0.63,17.06c-0.29,9.45-0.43,14.67-0.43,15.66c0,5.97,0.46,10.44,1.39,13.42c-0.75,1.74-1.62,2.61-2.59,2.61
	c-1.02,0-1.92-0.54-2.72-1.63c-0.8-1.09-1.24-2.34-1.33-3.78c-2.08,2.67-4.2,4.01-6.37,4.01c-3.23,0-5.73-1.58-7.5-4.75
	c-1.64-2.86-2.45-6.62-2.45-11.28c0-5.47,0.8-11.03,2.39-16.68c2.03-7.15,4.69-10.72,7.96-10.72c1.95,0,3.94,1.21,5.97,3.64
	c0.22-2.92,0.33-10.38,0.33-22.37c0-1.12,0.6-1.68,1.79-1.68"/>
<path class="st0" d="M265.3,39.06c0-2.11-0.33-4.04-1-5.78c-0.84-2.11-1.95-3.17-3.32-3.17c-1.99,0-3.52,2.77-4.58,8.3
	c-0.8,3.98-1.19,7.89-1.19,11.74c0,5.78,1.19,8.67,3.58,8.67c2.48,0,4.27-2.58,5.37-7.74C264.93,47.6,265.3,43.59,265.3,39.06z"/>
<g>
	<path class="st0" d="M173.46,50.29c0,1.86-0.42,3.51-1.26,4.95c-4.03,7.2-10.95,10.8-20.76,10.8c-3.07,0-6.95-0.6-11.64-1.8
		c0,0.12-0.03,0.24-0.09,0.36c0,0.18,0.12,0.75,0.36,1.71c-0.24,0.72-0.68,1.17-1.33,1.35l-0.71-0.36
		c-1.13,0.12-1.78-0.48-1.96-1.79c-0.18-1.91-0.34-2.95-0.49-3.13c-0.15-0.18-0.76-0.51-1.82-0.98c-0.83-0.36-1.24-0.89-1.24-1.61
		c0-0.89,0.43-1.38,1.3-1.48c0.87-0.09,1.33-0.28,1.4-0.58c0,0.06,0-0.42,0-1.43c0-1.01,0.04-2.62,0.14-4.83
		c0.09-2.21,0.13-3.87,0.13-5.01v-3.13c-1.32-0.42-1.98-0.98-1.98-1.7c0-0.89,0.57-1.64,1.71-2.24V9.17c0-0.48,0.34-1.09,1.04-1.81
		c0.69-0.72,1.27-1.09,1.75-1.09c0.96,0,1.5,0.09,1.62,0.27c0.36,0.36,0.69,0.75,0.99,1.17c-0.96,5.52-1.44,9.48-1.44,11.88
		l0.09,0.54c4.08-10.5,10.17-15.75,18.27-15.75c4.68,0,8.25,1.8,10.71,5.4c2.22,3.18,3.33,7.17,3.33,11.97
		c0,3.6-0.84,7.14-2.52,10.62c-1.92,4.08-4.38,6.6-7.38,7.56C169.53,40.9,173.46,44.35,173.46,50.29z M168.96,49.75
		c0-3.3-3.19-5.43-9.57-6.39c-2.59-0.42-7.1-0.63-13.54-0.63c-2.53,0-4.54,0.18-6.05,0.54c-0.06,1.98-0.09,6.09-0.09,12.33
		c0,1.56,0.06,2.97,0.18,4.23c2.89,1.68,6.71,2.52,11.47,2.52c3.85,0,7.61-1.14,11.29-3.42C166.85,56.41,168.96,53.35,168.96,49.75z
		 M167.07,21.4c0-9-3.28-13.5-9.84-13.5c-4.46,0-8.52,2.91-12.19,8.73c-3.31,5.22-4.97,10.17-4.97,14.85v7.92c-0.24,0,1.99,0,6.68,0
		c6.92,0,11.95-1.23,15.08-3.69C165.32,32.89,167.07,28.12,167.07,21.4z"/>
</g>
</svg>
