<?xml version="1.0" encoding="utf-8"?>
<!-- Generator: Adobe Illustrator 23.0.4, SVG Export Plug-In . SVG Version: 6.00 Build 0)  -->
<svg version="1.1" id="Layer_1" xmlns="http://www.w3.org/2000/svg" xmlns:xlink="http://www.w3.org/1999/xlink" x="0px" y="0px"
	 viewBox="0 0 160 55" style="enable-background:new 0 0 160 55;" xml:space="preserve">
<style type="text/css">
	.st0{fill:#D06A8B;}
	.st1{fill:#E6E6E6;}
	.st2{fill:#FFFFFF;}
	.st3{fill:#F2F2F2;}
	.st4{font-family:'PTSerif-Regular';}
	.st5{font-size:35.2875px;}
	.st6{fill:none;stroke:#E6E6E6;stroke-width:3;stroke-linecap:round;stroke-miterlimit:10;}
</style>
<path class="st0" d="M198.33,104.23c-0.01-0.28,0.16-0.35,0.4-0.34C198.63,104.04,198.54,104.21,198.33,104.23z"/>
<path class="st0" d="M197.96,104.43c0.05-0.2,0.2-0.21,0.36-0.19C198.25,104.4,198.17,104.53,197.96,104.43z"/>
<path class="st1" d="M14.36,16.81c0.51-1.12,1.07-2.22,1.53-3.37c1.1-2.77,2.42-5.42,3.64-8.12c0.19-0.42,0.3-0.44,0.62,0.02
	c1.4,2.06,2.81,4.11,4.25,6.15c0.37,0.53,0.4,0.95,0.2,1.51c-0.87,2.48-1.34,5.14-1.77,7.81c-0.67,4.26-1.69,8.38-2.56,12.56
	c-0.05,0.25-0.03,0.52-0.08,0.77c-0.16,0.88-0.16,0.88,0.81,1.27c2.42,0.98,4.86,1.89,7.23,3.05c0.34,0.17,0.7,0.29,1.06,0.4
	c0.28,0.09,0.49,0.2,0.65,0.43c1.59,2.31,3.19,4.62,4.88,7.06c-8.32-0.53-16.54-1.05-24.89-1.58c1.06-2.29,2.08-4.5,3.1-6.71
	c0.2-0.2,0.12-0.52,0.24-0.77c1.61-3.52,3.35-6.96,4.84-10.55c0.88-2.12,1.91-4.17,2.9-6.23c-1.93-1.13-3.81-2.35-5.68-3.6
	C14.92,16.65,14.66,16.6,14.36,16.81z"/>
<path class="st2" d="M14.36,16.81c0.3-0.21,0.55-0.17,0.95,0.1c1.86,1.25,3.75,2.48,5.68,3.6c-0.99,2.06-2.02,4.1-2.9,6.23
	c-1.49,3.59-3.23,7.03-4.84,10.55c-0.11,0.25-0.03,0.57-0.24,0.77c-2.43-0.34-4.82-0.31-7.24-0.48c-0.13-0.01-0.26-0.04-0.38-0.04
	c-0.63,0.01-0.5-0.3,0.18-1.26c0.05-0.07,0.1-0.16,0.13-0.25c1.5-4.22,3.66-8.06,5.4-12.14c0.96-2.25,1.95-4.49,3.03-6.67
	c0.31,0.08,0.23-0.08,0.13-0.25C14.31,16.93,14.33,16.87,14.36,16.81z"/>
<path class="st0" d="M14.28,16.98c0.1,0.17,0.18,0.33-0.13,0.25C14.19,17.15,14.23,17.07,14.28,16.98z"/>
<path class="st2" d="M40.03,32.8c0,0.19-0.16,0.52-0.48,0.99c-0.32,0.48-0.65,0.86-0.98,1.16c-0.89,0.82-2.08,1.23-3.57,1.23
	c-1.86,0-3.42-0.61-4.68-1.82c-1.25-1.21-1.88-2.71-1.88-4.5c0-1.86,0.6-3.42,1.79-4.67c1.19-1.25,2.68-1.87,4.46-1.87
	c1.47,0,2.7,0.39,3.7,1.16c0.99,0.77,1.52,1.77,1.59,2.98c-0.66,0.09-1.54,0.13-2.64,0.11h-2.17c-0.15,0-1.39,0.03-3.73,0.08
	c-0.1,0.61-0.16,1.2-0.16,1.75c0,1.88,0.4,3.32,1.2,4.33c0.8,1.01,1.92,1.52,3.37,1.52c0.83,0,1.49-0.17,1.99-0.5
	c0.5-0.34,1.04-0.98,1.62-1.93c0.08-0.15,0.2-0.22,0.34-0.22C39.94,32.61,40.03,32.67,40.03,32.8z M37.32,27.1
	c-0.08-2.24-0.97-3.35-2.67-3.35c-1.68,0-2.72,1.12-3.14,3.35H37.32z"/>
<path class="st2" d="M54.17,34.59c0,0.32-0.37,0.65-1.1,0.99c-0.73,0.34-1.44,0.52-2.12,0.52c-1.42,0-2.16-0.66-2.23-1.98
	c-0.78,1.38-2,2.07-3.65,2.07c-0.89,0-1.62-0.24-2.2-0.71c-0.58-0.48-0.87-1.09-0.87-1.83c0-1.53,1.02-2.74,3.05-3.63
	c0.7-0.3,1.91-0.6,3.63-0.89v-0.7c0-1.64-0.09-2.72-0.28-3.24c-0.33-0.95-1.08-1.43-2.24-1.43c-0.73,0-1.33,0.18-1.82,0.53
	c-0.49,0.35-0.73,0.8-0.73,1.34c0,0.15,0.13,0.22,0.38,0.22c0.25,0,0.48,0.11,0.68,0.34c0.2,0.22,0.3,0.47,0.3,0.75
	c0,0.82-0.45,1.23-1.35,1.23c-0.47,0-0.86-0.14-1.17-0.43c-0.31-0.29-0.46-0.66-0.46-1.1c0-0.88,0.38-1.63,1.15-2.26
	c0.85-0.69,2.03-1.03,3.54-1.03c2.28,0,3.68,0.56,4.2,1.68c0.19,0.43,0.28,1.28,0.28,2.54v5.23c0,0.86,0.01,1.36,0.03,1.51
	c0.1,0.67,0.4,1.01,0.9,1.01c0.58,0,1.06-0.19,1.43-0.56c0.21-0.2,0.36-0.31,0.47-0.31C54.11,34.42,54.17,34.48,54.17,34.59z
	 M48.7,31.63v-2.04c-1.53,0.32-2.63,0.73-3.29,1.24c-0.66,0.51-1,1.2-1,2.05c0,0.6,0.19,1.09,0.57,1.47
	c0.38,0.38,0.85,0.57,1.42,0.57c0.88,0,1.58-0.45,2.11-1.34C48.64,33.38,48.7,32.73,48.7,31.63z"/>
<path class="st2" d="M63.64,25.28c0,0.43-0.15,0.78-0.43,1.06c-0.29,0.28-0.66,0.42-1.12,0.42c-0.37,0-0.68-0.1-0.93-0.29
	c-0.25-0.2-0.37-0.44-0.37-0.74c0-0.26,0.09-0.48,0.28-0.67c0.19-0.19,0.28-0.32,0.28-0.39c0-0.28-0.23-0.42-0.68-0.42
	c-0.58,0-1.08,0.32-1.49,0.97c-0.48,0.76-0.71,2.17-0.71,4.23v5.51c0,0.22,0.09,0.36,0.26,0.42c0.18,0.06,0.71,0.09,1.6,0.11
	c0.23,0.04,0.34,0.11,0.34,0.22c0,0.13-0.14,0.2-0.4,0.2c-0.48,0-0.92,0-1.34,0s-1.2,0-2.36,0c-0.6,0-1.04,0-1.31,0s-0.61,0-1.03,0
	c-0.33,0-0.5-0.06-0.5-0.17c0-0.11,0.13-0.17,0.4-0.17h0.43c0.7,0,1.12-0.08,1.24-0.23c0.04-0.07,0.06-0.42,0.06-1.04v-7.73
	c0-1.03-0.17-1.62-0.51-1.78c-0.34-0.16-0.89-0.25-1.63-0.27c-0.25,0-0.37-0.07-0.37-0.2c0-0.13,0.1-0.2,0.31-0.2h0.22
	c0.31,0,0.62,0.01,0.93,0.04c0.31,0.03,0.45,0.04,0.4,0.04c0.77,0,1.62-0.2,2.55-0.59l0.4-0.17l0.25-0.08
	c0.08,0.45,0.12,0.89,0.12,1.34v0.56c0.66-1.27,1.6-1.9,2.8-1.9c0.66,0,1.21,0.18,1.65,0.55S63.64,24.74,63.64,25.28z"/>
<path class="st2" d="M78.74,35.7c0,0.14-0.16,0.21-0.47,0.21h-0.37c-0.37,0-0.88,0-1.52,0c-2.03,0-3.23,0-3.6,0h-0.22
	c-0.27,0-0.4-0.07-0.4-0.2c0-0.09,0.06-0.15,0.17-0.17c0.11-0.02,0.51-0.04,1.2-0.06c0.39-0.02,0.62-0.07,0.68-0.15
	c0.06-0.08,0.09-0.39,0.09-0.91v-5.35c0-2.03-0.08-3.23-0.25-3.63c-0.35-0.84-1.06-1.25-2.11-1.25c-1.04,0-1.91,0.41-2.61,1.23
	c-0.21,0.24-0.31,0.58-0.31,1v8.7c0,0.22,0.22,0.34,0.66,0.36l0.95,0.03c0.21,0,0.32,0.07,0.32,0.2s-0.12,0.2-0.37,0.2h-0.5
	c-0.46,0-1.18,0-2.18,0c-0.23,0-0.72,0-1.48,0s-1.2,0-1.32,0h-0.19c-0.31,0-0.47-0.06-0.47-0.17c0-0.11,0.19-0.19,0.56-0.22
	c0.27,0,0.53,0,0.78,0c0.31,0,0.5-0.07,0.56-0.2l0.09-0.42v-6.08c0-2.12-0.02-3.29-0.06-3.51c-0.04-0.22-0.3-0.33-0.78-0.33
	c-0.15,0-0.39,0-0.75,0H64.7c-0.41,0-0.62-0.07-0.62-0.21c0-0.18,0.22-0.27,0.65-0.27c0.62-0.02,1.29-0.12,2.02-0.31
	c0.72-0.19,1.23-0.4,1.52-0.64c0.19-0.15,0.33-0.22,0.43-0.22c0.14,0,0.22,0.18,0.22,0.53v1.34c1.08-1.25,2.47-1.87,4.16-1.87
	c1.49,0,2.57,0.49,3.23,1.48c0.37,0.56,0.56,1.62,0.56,3.19v6.37c0,0.6,0.03,0.92,0.09,0.98c0.12,0.11,0.42,0.17,0.9,0.17
	c0.06,0,0.18,0,0.34,0h0.22C78.64,35.51,78.74,35.57,78.74,35.7z"/>
<path class="st3" d="M116.38,29.81c0,1.81-0.61,3.32-1.83,4.54c-1.22,1.22-2.75,1.83-4.57,1.83c-1.88,0-3.46-0.61-4.72-1.83
	c-1.26-1.22-1.9-2.73-1.9-4.54c0-1.86,0.62-3.41,1.85-4.64c1.23-1.23,2.77-1.84,4.61-1.84c1.86,0,3.42,0.62,4.68,1.86
	C115.75,26.42,116.38,27.97,116.38,29.81z M113.55,29.78c0-2.05-0.35-3.64-1.06-4.78c-0.52-0.84-1.39-1.26-2.61-1.26
	c-1.16,0-2.07,0.54-2.72,1.61c-0.65,1.07-0.98,2.56-0.98,4.46c0,1.88,0.35,3.35,1.04,4.4c0.69,1.05,1.66,1.58,2.91,1.58
	c0.95,0,1.66-0.33,2.11-0.98C113.11,33.58,113.55,31.91,113.55,29.78z"/>
<path class="st3" d="M130.64,34.59c0,0.32-0.37,0.65-1.1,0.99c-0.73,0.34-1.44,0.52-2.12,0.52c-1.42,0-2.16-0.66-2.23-1.98
	c-0.78,1.38-2,2.07-3.65,2.07c-0.89,0-1.62-0.24-2.19-0.71c-0.58-0.48-0.87-1.09-0.87-1.83c0-1.53,1.02-2.74,3.05-3.63
	c0.7-0.3,1.91-0.6,3.63-0.89v-0.7c0-1.64-0.09-2.72-0.28-3.24c-0.33-0.95-1.08-1.43-2.24-1.43c-0.73,0-1.33,0.18-1.82,0.53
	c-0.49,0.35-0.73,0.8-0.73,1.34c0,0.15,0.13,0.22,0.38,0.22c0.25,0,0.48,0.11,0.68,0.34c0.2,0.22,0.3,0.47,0.3,0.75
	c0,0.82-0.45,1.23-1.35,1.23c-0.47,0-0.86-0.14-1.17-0.43c-0.31-0.29-0.46-0.66-0.46-1.1c0-0.88,0.38-1.63,1.15-2.26
	c0.85-0.69,2.03-1.03,3.54-1.03c2.28,0,3.68,0.56,4.19,1.68c0.19,0.43,0.28,1.28,0.28,2.54v5.23c0,0.86,0.01,1.36,0.03,1.51
	c0.1,0.67,0.4,1.01,0.9,1.01c0.58,0,1.06-0.19,1.43-0.56c0.21-0.2,0.36-0.31,0.47-0.31C130.59,34.42,130.64,34.48,130.64,34.59z
	 M125.17,31.63v-2.04c-1.53,0.32-2.63,0.73-3.29,1.24c-0.66,0.51-1,1.2-1,2.05c0,0.6,0.19,1.09,0.57,1.47
	c0.38,0.38,0.85,0.57,1.42,0.57c0.88,0,1.58-0.45,2.11-1.34C125.11,33.38,125.17,32.73,125.17,31.63z"/>
<path class="st3" d="M140.12,25.28c0,0.43-0.15,0.78-0.43,1.06c-0.29,0.28-0.66,0.42-1.12,0.42c-0.37,0-0.68-0.1-0.93-0.29
	c-0.25-0.2-0.37-0.44-0.37-0.74c0-0.26,0.09-0.48,0.28-0.67c0.19-0.19,0.28-0.32,0.28-0.39c0-0.28-0.23-0.42-0.68-0.42
	c-0.58,0-1.08,0.32-1.49,0.97c-0.48,0.76-0.72,2.17-0.72,4.23v5.51c0,0.22,0.09,0.36,0.27,0.42c0.18,0.06,0.71,0.09,1.6,0.11
	c0.23,0.04,0.34,0.11,0.34,0.22c0,0.13-0.14,0.2-0.4,0.2c-0.48,0-0.92,0-1.34,0c-0.41,0-1.2,0-2.36,0c-0.6,0-1.04,0-1.3,0
	c-0.27,0-0.61,0-1.03,0c-0.33,0-0.5-0.06-0.5-0.17c0-0.11,0.13-0.17,0.4-0.17h0.43c0.7,0,1.12-0.08,1.24-0.23
	c0.04-0.07,0.06-0.42,0.06-1.04v-7.73c0-1.03-0.17-1.62-0.51-1.78c-0.34-0.16-0.89-0.25-1.63-0.27c-0.25,0-0.37-0.07-0.37-0.2
	c0-0.13,0.1-0.2,0.31-0.2h0.22c0.31,0,0.62,0.01,0.93,0.04c0.31,0.03,0.45,0.04,0.4,0.04c0.77,0,1.62-0.2,2.55-0.59l0.4-0.17
	l0.25-0.08c0.08,0.45,0.12,0.89,0.12,1.34v0.56c0.66-1.27,1.59-1.9,2.8-1.9c0.66,0,1.21,0.18,1.65,0.55
	C139.9,24.29,140.12,24.74,140.12,25.28z"/>
<path class="st3" d="M155,35.29c0,0.13-0.14,0.2-0.43,0.2h-0.16c-0.17,0-0.34,0-0.53,0h-0.25c-1.01,0-1.87,0.18-2.58,0.54
	c-0.29,0.14-0.47,0.22-0.53,0.22c-0.19,0-0.28-0.11-0.28-0.34l0.03-0.87c-0.89,0.8-1.95,1.2-3.17,1.2c-1.74,0-3.17-0.6-4.3-1.81
	c-1.13-1.21-1.69-2.75-1.69-4.62c0-1.93,0.56-3.49,1.69-4.69c1.13-1.2,2.6-1.8,4.43-1.8c1.41,0,2.47,0.46,3.17,1.37v-4.36
	c0-1.42-0.07-2.29-0.22-2.63c-0.12-0.28-0.31-0.41-0.55-0.39c-0.59,0.06-0.95,0.08-1.07,0.08c-0.27,0-0.4-0.08-0.4-0.25
	c0-0.17,0.11-0.25,0.34-0.25l1.11,0.03c0.62,0.02,1.56-0.24,2.84-0.78c0.08-0.04,0.15-0.06,0.22-0.06c0.21,0,0.31,0.22,0.31,0.67
	c0,0.11,0,0.31,0,0.59c0,0.3,0,0.56,0,0.78v9.64c0,4.42,0.04,6.78,0.12,7.1c0.04,0.13,0.53,0.2,1.46,0.2
	C154.86,35.07,155,35.14,155,35.29z M150.4,28.27c0-1.79-0.22-2.94-0.65-3.44c-0.56-0.63-1.27-0.95-2.14-0.95
	c-1.12,0-2.01,0.52-2.67,1.57c-0.66,1.04-0.99,2.44-0.99,4.19c0,1.68,0.29,3.11,0.87,4.31c0.25,0.5,0.62,0.92,1.1,1.24
	c0.49,0.33,0.99,0.49,1.51,0.49c0.64,0,1.22-0.17,1.74-0.52c0.52-0.34,0.85-0.76,1.01-1.24C150.32,33.43,150.4,31.55,150.4,28.27z"
	/>
<path class="st0" d="M146.83,17.35c0.1,0.17,0.18,0.33-0.13,0.25C146.74,17.52,146.78,17.43,146.83,17.35z"/>
<text transform="matrix(1.0147 -4.057242e-04 4.116787e-04 1 80.8195 41.1477)" class="st1 st4 st5">B</text>
<line class="st6" x1="34.7" y1="40.86" x2="77.4" y2="40.86"/>
<line class="st6" x1="103.95" y1="41.04" x2="153.7" y2="41.04"/>
</svg>
