<?xml version="1.0" encoding="utf-8"?>
<!-- Generator: Adobe Illustrator 23.0.4, SVG Export Plug-In . SVG Version: 6.00 Build 0)  -->
<svg version="1.1" id="Layer_1" xmlns="http://www.w3.org/2000/svg" xmlns:xlink="http://www.w3.org/1999/xlink" x="0px" y="0px"
	 viewBox="0 0 1000 1000" style="enable-background:new 0 0 1000 1000;" xml:space="preserve">
<style type="text/css">
	.st0{fill:#FEFEFE;}
	.st1{fill:#F15A24;}
	.st2{fill:#FFFFFF;}
</style>
<path class="st0" d="M203.75,650.1c0-159.12,0.01-318.25-0.07-477.37c0-2.81,0.63-3.45,3.44-3.45c157.75,0.08,315.5,0.08,473.25,0
	c2.81,0,3.45,0.63,3.45,3.44c-0.08,158-0.08,316,0,474c0,2.81-0.63,3.45-3.45,3.45C521.5,650.09,362.63,650.1,203.75,650.1z
	 M444.08,626.1c119.07,0,215.64-96.14,215.65-214.87c0.01-119.17-94.26-214.57-212.44-216.15
	c-121.95-1.63-218.29,95.55-218.68,215.18C228.21,529.5,324.93,626.1,444.08,626.1z"/>
<path class="st1" d="M444.08,626.1c-119.15,0-215.86-96.6-215.47-215.83c0.39-119.63,96.73-216.81,218.68-215.18
	c118.19,1.57,212.46,96.98,212.44,216.15C659.72,529.96,563.15,626.1,444.08,626.1z M582.35,494c-3.37-2.58-6.07-4.7-8.82-6.75
	c-19.75-14.72-29.23-34.52-29.23-59.02c0-13.5-0.22-27-0.01-40.5c0.37-22.65-7.31-42.61-20.27-60.69
	c-13.41-18.72-31.29-31.67-53.06-39.21c-1.66-0.57-2.98-1.03-3.33-3.34c-1.56-10.2-9.7-18.4-19.29-19.85
	c-10.72-1.62-22.21,3.08-25.1,13.15c-2.5,8.73-8.09,10.94-15.01,13.05c-0.59,0.18-1.17,0.44-1.73,0.7
	c-36.61,16.66-57.65,44.92-61.62,84.96c-1.7,17.13-0.84,34.48-0.27,51.71c0.73,21.89-6.29,39.88-24.05,53.27
	c-3.99,3-7.76,6.3-11.57,9.54c-0.94,0.8-2.28,1.46-2.31,2.98C398.41,494,489.95,494,582.35,494z M444.5,513.17
	c-15.62,0-31.23,0.06-46.85-0.06c-2.85-0.02-3.58,0.48-2.95,3.53c4.81,23.2,25.51,40.22,49.33,40.34
	c23.8,0.12,44.94-17.13,49.71-40.38c0.64-3.14-0.43-3.51-3.14-3.49C475.23,513.22,459.87,513.17,444.5,513.17z"/>
<path class="st2" d="M582.35,494c-92.4,0-183.94,0-275.66,0c0.03-1.52,1.36-2.18,2.31-2.98c3.81-3.24,7.58-6.53,11.57-9.54
	c17.77-13.38,24.78-31.38,24.05-53.27c-0.57-17.23-1.43-34.58,0.27-51.71c3.97-40.04,25.01-68.3,61.62-84.96
	c0.57-0.26,1.14-0.52,1.73-0.7c6.92-2.12,12.51-4.33,15.01-13.05c2.89-10.06,14.38-14.77,25.1-13.15
	c9.59,1.45,17.73,9.65,19.29,19.85c0.35,2.31,1.67,2.76,3.33,3.34c21.77,7.54,39.65,20.5,53.06,39.21
	c12.96,18.07,20.63,38.04,20.27,60.69c-0.22,13.49,0.01,27,0.01,40.5c0,24.5,9.48,44.3,29.23,59.02
	C576.28,489.3,578.98,491.42,582.35,494z"/>
<path class="st2" d="M444.5,513.17c15.37,0,30.73,0.05,46.1-0.05c2.71-0.02,3.78,0.35,3.14,3.49c-4.77,23.25-25.9,40.5-49.71,40.38
	c-23.82-0.12-44.53-17.15-49.33-40.34c-0.63-3.05,0.1-3.55,2.95-3.53C413.27,513.23,428.88,513.17,444.5,513.17z"/>
</svg>
